<svg width="24" height="24" viewBox="0 0 24 24" fill="none" xmlns="http://www.w3.org/2000/svg">
<path fill-rule="evenodd" clip-rule="evenodd" d="M8.4697 2.00002C4.62044 2.00002 1.5 4.97044 1.5 8.63464V15.3654C1.5 19.0296 4.62044 22 8.4697 22H14.5303C18.3796 22 21.5 19.0296 21.5 15.3654V8.63464C21.5 4.97044 18.3796 2.00002 14.5303 2.00002H8.4697ZM6.55051 8.63464C6.55051 8.1567 6.95752 7.76925 7.4596 7.76925H15.5404C16.0425 7.76925 16.4495 8.1567 16.4495 8.63464C16.4495 9.11258 16.0425 9.50002 15.5404 9.50002H7.4596C6.95752 9.50002 6.55051 9.11258 6.55051 8.63464ZM7.4596 11.6154C6.95752 11.6154 6.55051 12.0029 6.55051 12.4808C6.55051 12.9587 6.95752 13.3462 7.4596 13.3462H15.5404C16.0425 13.3462 16.4495 12.9587 16.4495 12.4808C16.4495 12.0029 16.0425 11.6154 15.5404 11.6154H7.4596ZM6.55051 16.3269C6.55051 15.849 6.95752 15.4616 7.4596 15.4616H15.5404C16.0425 15.4616 16.4495 15.849 16.4495 16.3269C16.4495 16.8049 16.0425 17.1923 15.5404 17.1923H7.4596C6.95752 17.1923 6.55051 16.8049 6.55051 16.3269Z" fill="#94A3B8"/>
</svg>
