<svg width="24" height="24" viewBox="0 0 24 24" fill="none" xmlns="http://www.w3.org/2000/svg">
<g clip-path="url(#clip0_1321_7314)">
<path d="M21.9126 16.5056C23.1665 14.314 23.608 11.7022 22.955 9.1062C21.551 3.52469 15.6194 0.1302 9.70641 1.5244C3.79342 2.9186 0.138155 8.57354 1.54214 14.1551C2.94612 19.7366 8.8777 23.1311 14.7907 21.7369C16.3617 21.3664 17.7733 20.6953 18.973 19.8046L20.918 20.9176C21.2407 21.1023 21.6423 20.8905 21.6649 20.5237L21.9126 16.5056Z" fill="#6BC1EF"/>
<path d="M6.78602 9.84699C6.78602 7.74932 8.59582 6.04883 10.8283 6.04883H13.1717C15.4042 6.04883 17.214 7.74932 17.214 9.84699V13.4124C17.214 13.6009 17.2631 13.7866 17.3569 13.9532L17.8691 14.8622C18.2616 15.5588 17.7242 16.3975 16.8854 16.3975H7.11462C6.27582 16.3975 5.73842 15.5588 6.13088 14.8622L6.64305 13.9532C6.73694 13.7866 6.78602 13.6009 6.78602 13.4124V9.84699Z" fill="white"/>
<path d="M10.8283 17.058C10.5371 17.058 10.3011 17.2798 10.3011 17.5534C10.3011 17.827 10.5371 18.0488 10.8283 18.0488H13.1717C13.4629 18.0488 13.6989 17.827 13.6989 17.5534C13.6989 17.2798 13.4629 17.058 13.1717 17.058H10.8283Z" fill="white"/>
</g>
<defs>
<clipPath id="clip0_1321_7314">
<rect width="24" height="24" fill="white"/>
</clipPath>
</defs>
</svg>
