<svg width="25" height="24" viewBox="0 0 25 24" fill="none" xmlns="http://www.w3.org/2000/svg">
<path d="M3.81004 8.64679C3.81004 4.97587 6.82637 2 10.5472 2H14.4528C18.1736 2 21.19 4.97587 21.19 8.64679V14.8862C21.19 15.2161 21.2718 15.5411 21.4282 15.8327L22.2819 17.4235C22.936 18.6424 22.0403 20.1101 20.6423 20.1101H4.3577C2.9597 20.1101 2.06403 18.6424 2.71814 17.4235L3.57175 15.8327C3.72823 15.5411 3.81004 15.2161 3.81004 14.8862V8.64679Z" fill="#0F172A"/>
<path d="M10.5472 21.2661C10.0619 21.2661 9.66844 21.6542 9.66844 22.133C9.66844 22.6118 10.0619 23 10.5472 23H14.4528C14.9381 23 15.3316 22.6118 15.3316 22.133C15.3316 21.6542 14.9381 21.2661 14.4528 21.2661H10.5472Z" fill="#0F172A"/>
</svg>
