<svg width="25" height="24" viewBox="0 0 25 24" fill="none" xmlns="http://www.w3.org/2000/svg">
<path d="M18.1666 9C19.1867 9 20.1175 8.61819 20.8241 7.98969C20.8456 8.20586 20.8566 8.42505 20.8566 8.64679V14.8862C20.8566 15.2161 20.9384 15.5411 21.0949 15.8327L21.9485 17.4235C22.6026 18.6424 21.7069 20.1101 20.3089 20.1101H4.02433C2.62633 20.1101 1.73065 18.6424 2.38476 17.4235L3.23838 15.8327C3.39486 15.5411 3.47666 15.2161 3.47666 14.8862V8.64679C3.47666 4.97587 6.49299 2 10.2138 2H14.1194C14.5546 2 14.9801 2.04071 15.3923 2.11847C14.6367 2.84612 14.1666 3.86816 14.1666 5C14.1666 7.20914 15.9575 9 18.1666 9Z" fill="black"/>
<path d="M10.2138 21.2661C9.72851 21.2661 9.33507 21.6542 9.33507 22.133C9.33507 22.6118 9.72851 23 10.2138 23H14.1194C14.6048 23 14.9982 22.6118 14.9982 22.133C14.9982 21.6542 14.6048 21.2661 14.1194 21.2661H10.2138Z" fill="black"/>
<path d="M21.1666 5C21.1666 6.65685 19.8235 8 18.1666 8C16.5098 8 15.1666 6.65685 15.1666 5C15.1666 3.34315 16.5098 2 18.1666 2C19.8235 2 21.1666 3.34315 21.1666 5Z" fill="#EF4444"/>
</svg>
