<svg width="83" height="82" viewBox="0 0 83 82" fill="none" xmlns="http://www.w3.org/2000/svg">
<path d="M0.5 16C0.5 7.16344 7.66344 0 16.5 0H66.5C75.3366 0 82.5 7.16344 82.5 16V66C82.5 74.8366 75.3366 82 66.5 82H16.5C7.66344 82 0.5 74.8366 0.5 66V16Z" fill="#329ED8"/>
<path d="M16.7124 59.8189L14.0083 23.3126C13.9172 22.0829 14.5848 20.9139 15.7034 20.3951C27.416 14.963 35.1118 14.766 48.1878 20.4199C49.3482 20.9216 50.0533 22.1144 49.9599 23.3752L47.2629 59.7843C47.1629 61.1345 46.1773 62.2572 44.8465 62.5065C34.7714 64.3937 28.4601 64.3971 19.0875 62.5292C17.7758 62.2678 16.8112 61.1527 16.7124 59.8189Z" fill="#A3DFFF"/>
<path d="M43.5434 58.4812C34.7197 60.9631 29.0425 61.0622 20.3811 58.5011C19.1779 58.1453 18.3482 57.0546 18.2856 55.8015L17.0975 32.0395C16.9671 29.4315 18.5175 26.9908 21.0477 26.3451C27.8672 24.6047 35.5674 24.5812 42.8106 26.3734C45.392 27.0121 47.0029 29.4833 46.8701 32.1392L45.689 55.7614C45.6254 57.0343 44.7703 58.1361 43.5434 58.4812Z" fill="#A3612C"/>
<path fill-rule="evenodd" clip-rule="evenodd" d="M21.5762 36.1116C21.4568 36.2198 21.2825 36.4715 21.1223 36.9953C20.7283 38.2833 20.7796 40.4351 21.021 41.8833L23.6669 57.7588C23.7355 58.1703 23.4575 58.5595 23.046 58.628C22.6345 58.6966 22.2453 58.4186 22.1767 58.0071L19.5308 42.1317C19.2735 40.5876 19.1842 38.1664 19.6776 36.5534C19.8766 35.9029 20.1573 35.3587 20.5618 34.9921C20.9987 34.5962 21.5308 34.4542 22.0741 34.5487C22.5757 34.6358 23.0351 34.9137 23.4323 35.2471C23.8373 35.587 24.2304 36.0294 24.6007 36.528C26.0652 38.5002 27.414 41.6866 27.7796 44.2459L29.7125 57.7761C29.7715 58.1891 29.4846 58.5717 29.0716 58.6307C28.6586 58.6897 28.276 58.4028 28.217 57.9898L26.2841 44.4596C25.955 42.1559 24.7064 39.2044 23.3878 37.4287C23.0623 36.9904 22.7481 36.6452 22.461 36.4042C22.166 36.1566 21.9486 36.0602 21.8154 36.0371C21.7238 36.0212 21.6632 36.0328 21.5762 36.1116Z" fill="#8D4F1D"/>
<path fill-rule="evenodd" clip-rule="evenodd" d="M42.3964 36.1116C42.5158 36.2198 42.6901 36.4715 42.8504 36.9953C43.2443 38.2833 43.193 40.4351 42.9517 41.8833L40.3058 57.7588C40.2372 58.1703 40.5152 58.5595 40.9267 58.628C41.3382 58.6966 41.7274 58.4186 41.7959 58.0071L44.4419 42.1317C44.6992 40.5876 44.7884 38.1664 44.295 36.5534C44.096 35.9029 43.8153 35.3587 43.4109 34.9921C42.974 34.5962 42.4419 34.4542 41.8986 34.5487C41.397 34.6358 40.9375 34.9137 40.5404 35.2471C40.1353 35.587 39.7422 36.0294 39.372 36.528C37.9075 38.5002 36.5586 41.6866 36.193 44.2459L34.2601 57.7761C34.2011 58.1891 34.4881 58.5717 34.9011 58.6307C35.3141 58.6897 35.6967 58.4028 35.7557 57.9898L37.6886 44.4596C38.0177 42.1559 39.2663 39.2044 40.5849 37.4287C40.9103 36.9904 41.2246 36.6452 41.5116 36.4042C41.8066 36.1566 42.0241 36.0602 42.1573 36.0371C42.2488 36.0212 42.3095 36.0328 42.3964 36.1116Z" fill="#8D4F1D"/>
<path fill-rule="evenodd" clip-rule="evenodd" d="M48.3165 23.7584C48.8072 24.4332 48.658 25.378 47.9832 25.8687C33.9507 36.0742 20.7712 30.1272 15.8762 25.7761C15.2526 25.2218 15.1964 24.2669 15.7508 23.6433C16.3051 23.0197 17.26 22.9635 17.8836 23.5178C22.053 27.224 33.6496 32.5571 46.2061 23.4252C46.8809 22.9344 47.8257 23.0836 48.3165 23.7584Z" fill="white"/>
<path fill-rule="evenodd" clip-rule="evenodd" d="M26.0896 19.4455C25.2684 19.6414 24.4244 20.033 23.3355 20.7466C22.9866 20.9752 22.5183 20.8777 22.2897 20.5288C22.061 20.1798 22.1585 19.7116 22.5075 19.483C23.6816 18.7136 24.6893 18.2264 25.739 17.976C26.7898 17.7253 27.8293 17.7247 29.0437 17.8528C29.4586 17.8966 29.7594 18.2684 29.7156 18.6833C29.6719 19.0981 29.3 19.399 28.8852 19.3552C27.7601 19.2365 26.9096 19.2498 26.0896 19.4455Z" fill="white"/>
<path d="M66.493 61.6377C57.8689 65.105 52.4925 65.0303 44.3851 61.689C43.2694 61.2292 42.5625 60.1278 42.5625 58.9211C42.5625 56.8875 44.5096 55.4275 46.4857 55.9078C53.7221 57.6667 58.5667 57.7378 64.3047 56.1478C66.2428 55.6107 68.2451 56.9963 68.2451 59.0074C68.2451 60.1593 67.5617 61.208 66.493 61.6377Z" fill="#F0A568"/>
<path d="M66.493 55.5947C57.8689 59.0621 52.4925 58.9874 44.3851 55.646C43.2694 55.1863 42.5625 54.0848 42.5625 52.8782C42.5625 50.8445 44.5096 49.3845 46.4857 49.8649C53.7221 51.6238 58.5667 51.6949 64.3047 50.1048C66.2428 49.5678 68.2451 50.9533 68.2451 52.9645C68.2451 54.1163 67.5617 55.1651 66.493 55.5947Z" fill="#E48F4B"/>
<path d="M66.2721 51.0378C58.083 53.8374 52.7421 53.7713 44.559 51.0297C43.3555 50.6265 42.5625 49.4851 42.5625 48.2158V46.7319C42.5625 42.4141 44.7848 38.2181 48.8189 36.6792C53.625 34.8458 57.5852 34.8473 62.1977 36.6559C66.1291 38.1973 68.2451 42.3327 68.2451 46.5554V48.2351C68.2451 49.4948 67.4641 50.6303 66.2721 51.0378Z" fill="#F0A568"/>
<path fill-rule="evenodd" clip-rule="evenodd" d="M41.8566 50.0602C42.0054 49.6704 42.442 49.4752 42.8317 49.624C47.9587 51.5823 51.8513 52.5387 55.6338 52.5414C59.412 52.544 63.1476 51.595 67.9592 49.6304C68.3455 49.4727 68.7864 49.6579 68.9441 50.0442C69.1018 50.4304 68.9165 50.8713 68.5303 51.029C63.6262 53.0314 59.6848 54.0549 55.6328 54.0521C51.5852 54.0493 47.4944 53.0222 42.2927 51.0353C41.903 50.8865 41.7077 50.4499 41.8566 50.0602Z" fill="#0F172A"/>
<path fill-rule="evenodd" clip-rule="evenodd" d="M67.4534 56.1454C67.5789 56.5432 67.3582 56.9675 66.9603 57.093C62.1246 58.6185 58.9615 59.3809 55.6761 59.3645C52.4014 59.3482 49.0578 58.5577 43.8677 57.0999C43.4661 56.9871 43.2319 56.57 43.3447 56.1684C43.4576 55.7667 43.8746 55.5326 44.2762 55.6454C49.4782 57.1066 52.6389 57.8386 55.6836 57.8538C58.7177 57.8689 61.6892 57.1717 66.5058 55.6523C66.9036 55.5268 67.3279 55.7475 67.4534 56.1454Z" fill="#0F172A"/>
</svg>
