<svg width="21" height="20" viewBox="0 0 21 20" fill="none" xmlns="http://www.w3.org/2000/svg">
<path d="M7.93197 3.10899C5.53599 3.10899 3.59367 4.9386 3.59367 7.19553V12.8045C3.59367 15.0614 5.53599 16.891 7.93197 16.891H10.9092C11.3321 16.891 11.6748 17.2139 11.6748 17.6122C11.6748 18.0105 11.3321 18.3334 10.9092 18.3334H7.93197C4.69035 18.3334 2.0625 15.858 2.0625 12.8045V7.19553C2.0625 4.14204 4.69035 1.66669 7.93197 1.66669H10.4839C10.9067 1.66669 11.2495 1.98956 11.2495 2.38784C11.2495 2.78612 10.9067 3.10899 10.4839 3.10899H7.93197Z" fill="white"/>
<path d="M14.1958 5.88432C13.8968 6.16595 13.8968 6.62256 14.1958 6.90418L16.2915 8.87823H5.80535C5.38253 8.87823 5.03977 9.2011 5.03977 9.59938C5.03977 9.99766 5.38253 10.3205 5.80535 10.3205H16.2915L14.1958 12.2946C13.8968 12.5762 13.8968 13.0328 14.1958 13.3144C14.4948 13.5961 14.9795 13.5961 15.2785 13.3144L18.3804 10.3926C18.8454 9.95452 18.8454 9.24424 18.3804 8.80615L15.2785 5.88432C14.9795 5.60269 14.4948 5.60269 14.1958 5.88432Z" fill="white"/>
</svg>
