<svg width="29" height="28" viewBox="0 0 29 28" fill="none" xmlns="http://www.w3.org/2000/svg">
<path d="M2.7085 20.1413V4.98096C2.7085 4.18464 3.48864 3.62234 4.2441 3.87416L9.25005 5.54281C9.54359 5.64066 9.86397 5.61789 10.1407 5.47951L13.8534 3.62317C14.1819 3.45894 14.5685 3.45894 14.8969 3.62317L18.6096 5.47951C18.8864 5.61789 19.2067 5.64066 19.5003 5.54281L24.5062 3.87416C25.2617 3.62234 26.0418 4.18464 26.0418 4.98096V20.1413C26.0418 20.5832 25.7922 20.9871 25.3969 21.1848L19.5636 24.1014C19.2351 24.2656 18.8485 24.2656 18.5201 24.1014L14.8969 22.2898C14.5685 22.1256 14.1819 22.1256 13.8534 22.2898L10.2302 24.1014C9.9018 24.2656 9.5152 24.2656 9.18675 24.1014L3.35341 21.1848C2.95817 20.9871 2.7085 20.5832 2.7085 20.1413Z" fill="#FFDC70"/>
<path d="M19.042 5.69569V23.9848C19.042 24.1583 19.2245 24.2711 19.3797 24.1935L25.3971 21.1848C25.7923 20.9872 26.042 20.5832 26.042 20.1413V4.98102C26.042 4.1847 25.2618 3.6224 24.5064 3.87422L19.042 5.69569Z" fill="#EEC239"/>
<path d="M9.7085 23.9951V5.69555L14.0375 3.53106C14.1926 3.45349 14.3752 3.5663 14.3752 3.73976V22.1747L10.0409 24.2064C9.88614 24.2789 9.7085 24.166 9.7085 23.9951Z" fill="#EEC239"/>
<path fill-rule="evenodd" clip-rule="evenodd" d="M14.9584 16.779C14.7457 16.779 14.5707 16.837 14.4089 16.9427C14.1392 17.1189 13.7777 17.0431 13.6015 16.7734C13.4253 16.5036 13.5012 16.1421 13.7709 15.966C14.1114 15.7435 14.5063 15.6123 14.9584 15.6123C15.6247 15.6123 16.2014 15.8398 16.6931 16.1621C16.9626 16.3387 17.0378 16.7003 16.8612 16.9698C16.6846 17.2392 16.323 17.3144 16.0535 17.1378C15.7029 16.908 15.3452 16.779 14.9584 16.779ZM22.5417 15.6123C22.8639 15.6123 23.125 15.8735 23.125 16.1956C23.125 16.7253 23.0716 17.1962 22.9715 17.614C22.8964 17.9273 22.5815 18.1204 22.2682 18.0453C21.9549 17.9702 21.7618 17.6553 21.8369 17.342C21.9127 17.0258 21.9584 16.6475 21.9584 16.1956C21.9584 15.8735 22.2195 15.6123 22.5417 15.6123ZM13.2407 17.3718C13.5268 17.52 13.6385 17.8721 13.4903 18.1581C13.36 18.4096 13.2342 18.677 13.1018 18.9588L13.0963 18.9705C12.9674 19.245 12.8323 19.5326 12.6887 19.8113C12.5412 20.0977 12.1895 20.2103 11.9031 20.0628C11.6166 19.9153 11.5041 19.5635 11.6516 19.2771C11.7853 19.0174 11.9127 18.7461 12.0447 18.4652L12.0459 18.4627C12.1765 18.1847 12.3119 17.8964 12.4544 17.6214C12.6027 17.3353 12.9547 17.2236 13.2407 17.3718ZM18.0706 18.378C18.3174 18.1708 18.6853 18.2029 18.8925 18.4497C19.098 18.6944 19.267 18.8745 19.4139 18.9914C19.4851 19.0482 19.539 19.0801 19.577 19.097C19.6085 19.1111 19.6232 19.1122 19.625 19.1123C19.6252 19.1123 19.6252 19.1123 19.6252 19.1123C19.6252 19.1123 19.6252 19.1123 19.625 19.1123C19.9489 19.1123 20.3114 19.0585 20.6467 18.9105C20.9414 18.7804 21.2858 18.9139 21.4159 19.2086C21.546 19.5033 21.4125 19.8477 21.1178 19.9778C20.5995 20.2066 20.0685 20.279 19.625 20.279C19.2431 20.279 18.9255 20.094 18.6871 19.904C18.4441 19.7106 18.2134 19.4552 17.999 19.1998C17.7918 18.9531 17.8239 18.5851 18.0706 18.378ZM5.85837 19.229C6.1161 19.0357 6.48173 19.0879 6.67503 19.3456C6.82597 19.5469 7.0736 19.8167 7.39553 20.0791C7.64526 20.2826 7.68272 20.6501 7.47918 20.8998C7.27565 21.1495 6.90821 21.187 6.65848 20.9834C6.26592 20.6635 5.95168 20.3256 5.7417 20.0456C5.5484 19.7879 5.60063 19.4223 5.85837 19.229ZM11.5479 20.651C11.7544 20.8983 11.7214 21.2661 11.4741 21.4726C11.1801 21.7182 10.8364 21.9107 10.4332 22.0115C9.9543 22.1313 9.48861 22.1454 9.04924 22.0858C8.72999 22.0426 8.50629 21.7487 8.54957 21.4294C8.59286 21.1102 8.88675 20.8865 9.206 20.9298C9.51025 20.971 9.82604 20.9607 10.1502 20.8797C10.3593 20.8274 10.5476 20.7263 10.7263 20.5771C10.9736 20.3706 11.3414 20.4037 11.5479 20.651Z" fill="#14B8A6"/>
<path fill-rule="evenodd" clip-rule="evenodd" d="M6.03 11.5289C4.19559 11.5289 2.7085 12.9721 2.7085 14.7522C2.7085 15.4334 2.9309 16.0971 3.34378 16.648L5.28617 19.2398C5.74161 19.8475 6.67538 19.8475 7.13082 19.2398L9.07321 16.648C9.48609 16.0971 9.7085 15.4334 9.7085 14.7522C9.7085 12.9721 8.22141 11.5289 6.38699 11.5289H6.03ZM6.2085 16.4519C7.07726 16.4519 7.78153 15.7685 7.78153 14.9254C7.78153 14.0824 7.07726 13.3989 6.2085 13.3989C5.33973 13.3989 4.63546 14.0824 4.63546 14.9254C4.63546 15.7685 5.33973 16.4519 6.2085 16.4519Z" fill="#22C55E"/>
<path d="M7.78153 14.9254C7.78153 15.7685 7.07726 16.4519 6.2085 16.4519C5.33973 16.4519 4.63546 15.7685 4.63546 14.9254C4.63546 14.0824 5.33973 13.3989 6.2085 13.3989C7.07726 13.3989 7.78153 14.0824 7.78153 14.9254Z" fill="#188C43"/>
<path fill-rule="evenodd" clip-rule="evenodd" d="M22.3635 8.02895C20.5291 8.02895 19.042 9.47205 19.042 11.2522C19.042 11.9334 19.2644 12.5971 19.6773 13.148L21.6197 15.7398C22.0751 16.3475 23.0089 16.3475 23.4643 15.7398L25.4067 13.148C25.8196 12.5971 26.042 11.9334 26.042 11.2522C26.042 9.47205 24.5549 8.02895 22.7205 8.02895H22.3635ZM22.542 12.9519C23.4108 12.9519 24.115 12.2685 24.115 11.4254C24.115 10.5824 23.4108 9.89892 22.542 9.89892C21.6732 9.89892 20.969 10.5824 20.969 11.4254C20.969 12.2685 21.6732 12.9519 22.542 12.9519Z" fill="#6466F1"/>
<path d="M24.115 11.4254C24.115 12.2685 23.4108 12.9519 22.542 12.9519C21.6732 12.9519 20.969 12.2685 20.969 11.4254C20.969 10.5824 21.6732 9.89892 22.542 9.89892C23.4108 9.89892 24.115 10.5824 24.115 11.4254Z" fill="#494CF8"/>
</svg>
