<svg width="25" height="24" viewBox="0 0 25 24" fill="none" xmlns="http://www.w3.org/2000/svg">
<path d="M18.8364 5.13637C19.1879 4.7849 19.1879 4.21505 18.8364 3.86358C18.4849 3.51211 17.9151 3.51211 17.5636 3.86358L14.0636 7.36358C13.7121 7.71505 13.7121 8.2849 14.0636 8.63637C14.2464 8.81911 14.4881 8.90684 14.7275 8.89956C15.6262 9.63305 16.2 10.7495 16.2 12C16.2 14.2091 14.4092 16 12.2 16C10.9495 16 9.83309 15.4262 9.09959 14.5275C9.10687 14.2881 9.01914 14.0463 8.83641 13.8636C8.48493 13.5121 7.91509 13.5121 7.56361 13.8636L3.56361 17.8636C3.21214 18.2151 3.21214 18.7849 3.56361 19.1364C3.91509 19.4878 4.48493 19.4878 4.83641 19.1364L7.11096 16.8618C13.0756 20.6191 18.5085 16.7835 21.3764 13.1426C21.9 12.4779 21.8628 11.5422 21.3177 10.8951C19.8301 9.12926 18.3643 7.87409 16.9428 7.03L18.8364 5.13637Z" fill="#0F172A"/>
<path d="M2.95649 10.8942C5.20122 7.89624 9.18585 4.74831 13.9241 5.80313L11.6957 8.03145C9.88982 8.25863 8.45868 9.68977 8.2315 11.4957L4.74728 14.9799C4.17161 14.4224 3.59356 13.7875 3.01485 13.0684C2.50579 12.4358 2.46984 11.5441 2.95649 10.8942Z" fill="#0F172A"/>
<path d="M12.2715 10.0012L12.2327 10.04C12.3581 10.2438 12.0558 10.626 11.7 11C11.4203 11.2797 11.0467 11.4625 10.7368 11.5359L10.2013 12.0715C10.2389 13.1429 11.1194 14 12.2 14C13.3046 14 14.2 13.1045 14.2 12C14.2 10.9193 13.343 10.0389 12.2715 10.0012Z" fill="#0F172A"/>
</svg>
