<svg width="25" height="24" viewBox="0 0 25 24" fill="none" xmlns="http://www.w3.org/2000/svg">
<path d="M3.375 18V8C3.375 5.23858 5.61358 3 8.375 3H16.375C19.1364 3 21.375 5.23858 21.375 8V18C21.375 20.7614 19.1364 23 16.375 23H8.375C5.61358 23 3.375 20.7614 3.375 18Z" fill="#5BB1E0"/>
<path d="M2.375 17V7C2.375 4.23858 4.61358 2 7.375 2H17.375C20.1364 2 22.375 4.23858 22.375 7V17C22.375 19.7614 20.1364 22 17.375 22H7.375C4.61358 22 2.375 19.7614 2.375 17Z" fill="#A1D2ED"/>
<path d="M2.375 8V7C2.375 4.23858 4.61358 2 7.375 2H17.375C20.1364 2 22.375 4.23858 22.375 7V8H2.375Z" fill="#D93E3E"/>
<path d="M9.575 1H9.175C8.73317 1 8.375 1.35817 8.375 1.8V4.2C8.375 4.64183 8.73317 5 9.175 5H9.575C10.0168 5 10.375 4.64183 10.375 4.2V1.8C10.375 1.35817 10.0168 1 9.575 1Z" fill="#F1F5F9"/>
<path d="M15.575 1H15.175C14.7332 1 14.375 1.35817 14.375 1.8V4.2C14.375 4.64183 14.7332 5 15.175 5H15.575C16.0168 5 16.375 4.64183 16.375 4.2V1.8C16.375 1.35817 16.0168 1 15.575 1Z" fill="#F1F5F9"/>
<path d="M17.6055 12.154V13.3078H19.1439V12.154H17.6055Z" fill="#15425B"/>
<path d="M23.375 17.9233C23.375 20.6847 21.1364 22.9233 18.375 22.9233C15.6136 22.9233 13.375 20.6847 13.375 17.9233C13.375 15.1619 15.6136 12.9233 18.375 12.9233C21.1364 12.9233 23.375 15.1619 23.375 17.9233Z" fill="#1C5777"/>
<path d="M22.6061 17.9231C22.6061 20.2597 20.7119 22.1539 18.3753 22.1539C16.0387 22.1539 14.1445 20.2597 14.1445 17.9231C14.1445 15.5865 16.0387 13.6923 18.3753 13.6923C20.7119 13.6923 22.6061 15.5865 22.6061 17.9231Z" fill="#329ED8"/>
<path d="M17.0291 12.1538H19.7214C20.04 12.1538 20.2983 11.8955 20.2983 11.5769C20.2983 11.2583 20.04 11 19.7214 11H17.0291C16.7104 11 16.4521 11.2583 16.4521 11.5769C16.4521 11.8955 16.7104 12.1538 17.0291 12.1538Z" fill="#1C5777"/>
<path fill-rule="evenodd" clip-rule="evenodd" d="M20.2596 15.9231C20.5145 16.1143 20.5661 16.4759 20.375 16.7308L19.2211 18.2692C19.0299 18.5241 18.6683 18.5758 18.4134 18.3846C18.1585 18.1935 18.1069 17.8318 18.298 17.5769L19.4519 16.0385C19.6431 15.7836 20.0047 15.7319 20.2596 15.9231Z" fill="#1C5777"/>
<path d="M19.221 18.154C19.221 18.4939 18.9455 18.7694 18.6056 18.7694C18.2658 18.7694 17.9902 18.4939 17.9902 18.154C17.9902 17.8141 18.2658 17.5386 18.6056 17.5386C18.9455 17.5386 19.221 17.8141 19.221 18.154Z" fill="#15425B"/>
<path fill-rule="evenodd" clip-rule="evenodd" d="M20.6826 17.9232C20.6826 17.7108 20.8548 17.5386 21.0672 17.5386H21.8365C22.0489 17.5386 22.2211 17.7108 22.2211 17.9232C22.2211 18.1357 22.0489 18.3079 21.8365 18.3079H21.0672C20.8548 18.3079 20.6826 18.1357 20.6826 17.9232Z" fill="#1C5777"/>
<path fill-rule="evenodd" clip-rule="evenodd" d="M18.3748 14.0767C18.5873 14.0767 18.7595 14.2489 18.7595 14.4613V15.2306C18.7595 15.443 18.5873 15.6152 18.3748 15.6152C18.1624 15.6152 17.9902 15.443 17.9902 15.2306V14.4613C17.9902 14.2489 18.1624 14.0767 18.3748 14.0767Z" fill="#1C5777"/>
</svg>
