<svg width="24" height="24" viewBox="0 0 24 24" fill="none" xmlns="http://www.w3.org/2000/svg">
<path d="M12.804 1.13799C12.8699 0.954002 13.1301 0.954002 13.196 1.13799L14.0149 3.42471C14.0704 3.57955 14.2751 3.61197 14.3756 3.48184L15.8611 1.56011C15.9806 1.40548 16.2281 1.48589 16.2339 1.68124L16.3062 4.1091C16.311 4.2735 16.4957 4.36758 16.6316 4.2749L18.6382 2.90627C18.7996 2.79614 19.0101 2.94909 18.9553 3.13667L18.2737 5.46802C18.2276 5.62589 18.3741 5.77241 18.532 5.72626L20.8633 5.04469C21.0509 4.98986 21.2039 5.20037 21.0937 5.36182L19.7251 7.36845C19.6324 7.50433 19.7265 7.68896 19.8909 7.69385L22.3188 7.76607C22.5141 7.77188 22.5945 8.01935 22.4399 8.13888L20.5182 9.62436C20.388 9.72495 20.4204 9.92962 20.5753 9.98507L22.862 10.804C23.046 10.8699 23.046 11.1301 22.862 11.196L20.5753 12.0149C20.4204 12.0704 20.388 12.2751 20.5182 12.3756L22.4399 13.8611C22.5945 13.9806 22.5141 14.2281 22.3188 14.2339L19.8909 14.3062C19.7265 14.311 19.6324 14.4957 19.7251 14.6316L21.0937 16.6382C21.2039 16.7996 21.0509 17.0101 20.8633 16.9553L18.532 16.2737C18.3741 16.2276 18.2276 16.3741 18.2737 16.532L18.9553 18.8633C19.0101 19.0509 18.7996 19.2039 18.6382 19.0937L16.6316 17.7251C16.4957 17.6324 16.311 17.7265 16.3062 17.8909L16.2339 20.3188C16.2281 20.5141 15.9806 20.5945 15.8611 20.4399L14.3756 18.5182C14.2751 18.388 14.0704 18.4204 14.0149 18.5753L13.196 20.862C13.1301 21.046 12.8699 21.046 12.804 20.862L11.9851 18.5753C11.9296 18.4204 11.725 18.388 11.6244 18.5182L10.1389 20.4399C10.0194 20.5945 9.77188 20.5141 9.76607 20.3188L9.69385 17.8909C9.68896 17.7265 9.50433 17.6324 9.36845 17.7251L7.36182 19.0937C7.20037 19.2039 6.98986 19.0509 7.04469 18.8633L7.72626 16.532C7.77241 16.3741 7.62589 16.2276 7.46802 16.2737L5.13667 16.9553C4.94909 17.0101 4.79614 16.7996 4.90627 16.6382L6.2749 14.6316C6.36758 14.4957 6.2735 14.311 6.1091 14.3062L3.68124 14.2339C3.48589 14.2281 3.40548 13.9806 3.56011 13.8611L5.48184 12.3756C5.61197 12.2751 5.57955 12.0704 5.42471 12.0149L3.13799 11.196C2.954 11.1301 2.954 10.8699 3.13799 10.804L5.42471 9.98507C5.57955 9.92962 5.61197 9.72495 5.48184 9.62436L3.56011 8.13888C3.40548 8.01935 3.48589 7.77188 3.68124 7.76607L6.1091 7.69385C6.2735 7.68896 6.36758 7.50433 6.2749 7.36845L4.90627 5.36182C4.79614 5.20037 4.94909 4.98986 5.13667 5.04469L7.46802 5.72626C7.62589 5.77241 7.77241 5.62589 7.72626 5.46802L7.04469 3.13667C6.98986 2.94909 7.20037 2.79614 7.36182 2.90627L9.36845 4.2749C9.50433 4.36758 9.68896 4.2735 9.69385 4.1091L9.76607 1.68124C9.77188 1.48589 10.0194 1.40548 10.1389 1.56011L11.6244 3.48184C11.725 3.61197 11.9296 3.57955 11.9851 3.42471L12.804 1.13799Z" fill="#EEC239"/>
<path d="M20.2865 11C20.2865 15.0242 17.0242 18.2865 13 18.2865C8.97578 18.2865 5.7135 15.0242 5.7135 11C5.7135 6.97578 8.97578 3.7135 13 3.7135C17.0242 3.7135 20.2865 6.97578 20.2865 11Z" fill="#F1CC5A"/>
<path d="M13 4.75443L13.2811 5.51421L14.0409 5.79536L13.2811 6.0765L13 6.83629L12.7189 6.0765L11.9591 5.79536L12.7189 5.51421L13 4.75443Z" fill="#D5A307"/>
<path d="M7.79536 12.0409L8.0765 12.8007L8.83629 13.0819L8.0765 13.363L7.79536 14.1228L7.51421 13.363L6.75443 13.0819L7.51421 12.8007L7.79536 12.0409Z" fill="#D5A307"/>
<path d="M7.95886 8.80209L9.22397 8.24664C9.74546 8.01767 10.2307 8.47086 9.96305 8.93688C7.48785 13.2464 9.62898 18.1231 14.4768 19.2174C15.001 19.3357 15.0062 19.9997 14.4847 20.2286L13.2196 20.7841C9.37636 22.4715 5.08311 21.1572 3.63039 17.8484C2.17766 14.5397 4.11559 10.4895 7.95886 8.80209Z" fill="#15425B"/>
</svg>
