<svg width="29" height="28" viewBox="0 0 29 28" fill="none" xmlns="http://www.w3.org/2000/svg">
<path d="M14.272 2.49433C14.3489 2.27968 14.6524 2.27968 14.7293 2.49433L15.6847 5.16217C15.7494 5.34282 15.9882 5.38064 16.1056 5.22882L17.8386 2.9868C17.9781 2.8064 18.2668 2.90021 18.2736 3.12812L18.3578 5.96062C18.3635 6.15243 18.5789 6.26218 18.7375 6.15406L21.0785 4.55732C21.2669 4.42884 21.5125 4.60728 21.4485 4.82613L20.6534 7.54603C20.5995 7.73021 20.7705 7.90115 20.9546 7.84731L23.6745 7.05215C23.8934 6.98817 24.0718 7.23377 23.9433 7.42213L22.3466 9.7632C22.2385 9.92172 22.3482 10.1371 22.54 10.1428L25.3725 10.2271C25.6004 10.2339 25.6943 10.5226 25.5139 10.662L23.2718 12.3951C23.12 12.5125 23.1578 12.7512 23.3385 12.8159L26.0063 13.7713C26.221 13.8482 26.221 14.1518 26.0063 14.2287L23.3385 15.1841C23.1578 15.2488 23.12 15.4876 23.2718 15.6049L25.5139 17.338C25.6943 17.4774 25.6004 17.7661 25.3725 17.7729L22.54 17.8572C22.3482 17.8629 22.2385 18.0783 22.3466 18.2368L23.9433 20.5779C24.0718 20.7662 23.8934 21.0118 23.6745 20.9479L20.9546 20.1527C20.7705 20.0989 20.5995 20.2698 20.6534 20.454L21.4485 23.1739C21.5125 23.3927 21.2669 23.5712 21.0785 23.4427L18.7375 21.846C18.5789 21.7378 18.3635 21.8476 18.3578 22.0394L18.2736 24.8719C18.2668 25.0998 17.9781 25.1936 17.8386 25.0132L16.1056 22.7712C15.9882 22.6194 15.7494 22.6572 15.6847 22.8378L14.7293 25.5057C14.6524 25.7203 14.3489 25.7203 14.272 25.5057L13.3166 22.8378C13.2519 22.6572 13.0131 22.6194 12.8957 22.7712L11.1627 25.0132C11.0232 25.1936 10.7345 25.0998 10.7277 24.8719L10.6435 22.0394C10.6378 21.8476 10.4224 21.7378 10.2638 21.846L7.92278 23.4427C7.73441 23.5712 7.48882 23.3927 7.55279 23.1739L8.34796 20.454C8.4018 20.2698 8.23085 20.0989 8.04668 20.1527L5.32677 20.9479C5.10792 21.0118 4.92949 20.7662 5.05796 20.5779L6.6547 18.2368C6.76282 18.0783 6.65307 17.8629 6.46127 17.8572L3.62877 17.7729C3.40086 17.7661 3.30705 17.4774 3.48745 17.338L5.72946 15.6049C5.88128 15.4876 5.84346 15.2488 5.66281 15.1841L2.99498 14.2287C2.78032 14.1518 2.78032 13.8482 2.99498 13.7713L5.66281 12.8159C5.84346 12.7512 5.88128 12.5125 5.72946 12.3951L3.48745 10.662C3.30705 10.5226 3.40086 10.2339 3.62877 10.2271L6.46127 10.1428C6.65307 10.1371 6.76282 9.92172 6.6547 9.7632L5.05796 7.42213C4.92949 7.23377 5.10792 6.98817 5.32677 7.05215L8.04668 7.84731C8.23085 7.90115 8.4018 7.73021 8.34796 7.54603L7.55279 4.82613C7.48882 4.60728 7.73441 4.42884 7.92278 4.55732L10.2638 6.15406C10.4224 6.26218 10.6378 6.15243 10.6435 5.96062L10.7277 3.12812C10.7345 2.90021 11.0232 2.80641 11.1627 2.9868L12.8957 5.22882C13.0131 5.38064 13.2519 5.34282 13.3166 5.16217L14.272 2.49433Z" fill="#EEC239"/>
<path d="M23.0016 14C23.0016 18.6949 19.1956 22.5009 14.5007 22.5009C9.80572 22.5009 5.99973 18.6949 5.99973 14C5.99973 9.30508 9.80572 5.49909 14.5007 5.49909C19.1956 5.49909 23.0016 9.30508 23.0016 14Z" fill="#F1CC5A"/>
<path d="M14.5007 6.71351L14.8287 7.59992L15.7151 7.92792L14.8287 8.25593L14.5007 9.14234L14.1726 8.25593L13.2862 7.92792L14.1726 7.59992L14.5007 6.71351Z" fill="#D5A307"/>
<path d="M8.42857 15.2144L8.75657 16.1008L9.64298 16.4288L8.75657 16.7568L8.42857 17.6433L8.10056 16.7568L7.21415 16.4288L8.10056 16.1008L8.42857 15.2144Z" fill="#D5A307"/>
</svg>
