<svg width="24" height="24" viewBox="0 0 24 24" fill="none" xmlns="http://www.w3.org/2000/svg">
<path fill-rule="evenodd" clip-rule="evenodd" d="M6.82913 3.00003C3.54075 3.00003 0.875 5.67123 0.875 8.96632V15.0337C0.875 18.3288 3.54075 21 6.82913 21H16.9209C20.2092 21 22.875 18.3288 22.875 15.0337V8.96632C22.875 5.67123 20.2092 3.00003 16.9209 3.00003H6.82913ZM5.54782 12.4675C4.58341 12.4675 3.80161 13.2684 3.80161 14.2563C3.80161 15.2441 4.58341 16.045 5.54782 16.045H9.11961C10.084 16.045 10.8658 15.2441 10.8658 14.2563C10.8658 13.2684 10.084 12.4675 9.11961 12.4675H5.54782ZM9.31805 9.98772C9.31805 11.1103 8.42963 12.0204 7.33372 12.0204C6.2378 12.0204 5.34939 11.1103 5.34939 9.98772C5.34939 8.86513 6.2378 7.95509 7.33372 7.95509C8.42963 7.95509 9.31805 8.86513 9.31805 9.98772ZM12.1273 9.97756C12.1273 9.55869 12.4662 9.21913 12.8842 9.21913H18.9392C19.3572 9.21913 19.6961 9.55869 19.6961 9.97756C19.6961 10.3964 19.3572 10.736 18.9392 10.736H12.8842C12.4662 10.736 12.1273 10.3964 12.1273 9.97756ZM12.8842 11.7472C12.4662 11.7472 12.1273 12.0868 12.1273 12.5056C12.1273 12.9245 12.4662 13.2641 12.8842 13.2641H17.93C18.3481 13.2641 18.6869 12.9245 18.6869 12.5056C18.6869 12.0868 18.3481 11.7472 17.93 11.7472H12.8842ZM12.1273 15.0337C12.1273 14.6149 12.4662 14.2753 12.8842 14.2753H16.9209C17.3389 14.2753 17.6778 14.6149 17.6778 15.0337C17.6778 15.4526 17.3389 15.7922 16.9209 15.7922H12.8842C12.4662 15.7922 12.1273 15.4526 12.1273 15.0337Z" fill="#94A3B8"/>
</svg>
