<svg width="24" height="24" viewBox="0 0 24 24" fill="none" xmlns="http://www.w3.org/2000/svg">
<path d="M16.0956 2.07902C15.663 1.91132 15.1688 2.01577 14.8475 2.34275L11.6599 5.58705L12.5311 6.30159L13.4023 7.01613L16.8799 9.86847L17.7501 10.5822L18.6204 11.296L21.5787 8.14163C21.9168 7.78112 21.9712 7.24843 21.7126 6.83065L21.1303 5.8898C20.1482 4.30319 18.6569 3.07212 16.8846 2.38494L16.0956 2.07902Z" fill="#94A3B8"/>
<path d="M8.07753 22C8.3985 22 8.70459 21.8688 8.9205 21.6385L17.0867 12.9312L16.2165 12.2175L15.3463 11.5037L11.8282 8.61821L10.957 7.90367L10.0858 7.18913L2.18927 15.2262C1.98753 15.4315 1.875 15.7042 1.875 15.9877V20.8957C1.875 21.5056 2.38505 22 3.01424 22H8.07753Z" fill="#94A3B8"/>
</svg>
