<svg width="38" height="36" viewBox="0 0 38 36" fill="none" xmlns="http://www.w3.org/2000/svg">
<path d="M0.666626 12.6199V33.3333C0.666626 34.4379 1.56206 35.3333 2.66663 35.3333H35.3333C36.4379 35.3333 37.3333 34.4379 37.3333 33.3333V12.6199C37.3333 12.2188 37.0936 11.8565 36.7244 11.6996L19 4.16666L1.27549 11.6996C0.906317 11.8565 0.666626 12.2188 0.666626 12.6199Z" fill="#15425B"/>
<path d="M6.16663 2.5V18.6806V24.1667C6.16663 25.2712 7.06205 26.1667 8.16662 26.1667H29.8333C30.9379 26.1667 31.8333 25.2712 31.8333 24.1667V2.5C31.8333 1.39543 30.9379 0.5 29.8333 0.5H8.16663C7.06206 0.5 6.16663 1.39543 6.16663 2.5Z" fill="#A1D2ED"/>
<path d="M8 4.56666V11.1C8 11.3209 8.17909 11.5 8.4 11.5H14.9333C15.1542 11.5 15.3333 11.3209 15.3333 11.1V4.56666C15.3333 4.34574 15.1542 4.16666 14.9333 4.16666H8.4C8.17909 4.16666 8 4.34574 8 4.56666Z" fill="#15425B"/>
<path d="M0.666626 13.3333V33.3333C0.666626 34.4379 1.56206 35.3333 2.66663 35.3333H35.3333C36.4379 35.3333 37.3333 34.4379 37.3333 33.3333V13.3333L19 21.9762L9.83329 17.6548L0.666626 13.3333Z" fill="#247099"/>
<path d="M6.16663 31.6667L17.6984 21.7823C18.4474 21.1403 19.5526 21.1403 20.3015 21.7823L31.8333 31.6667" stroke="#15425B" stroke-width="0.5" stroke-linecap="round"/>
<path d="M27.25 13.3333H8.91667C8.41041 13.3333 8 13.7437 8 14.25C8 14.7563 8.4104 15.1667 8.91666 15.1667H27.25C27.7563 15.1667 28.1667 14.7563 28.1667 14.25C28.1667 13.7437 27.7563 13.3333 27.25 13.3333Z" fill="white"/>
</svg>
