<svg width="375" height="240" viewBox="0 0 375 240" fill="none" xmlns="http://www.w3.org/2000/svg">
<g clip-path="url(#clip0_108_5453)">
<path d="M0 0H375V208C375 225.673 360.673 240 343 240H32C14.3269 240 0 225.673 0 208V0Z" fill="#2E90C5"/>
<path d="M-37.1081 128.15C-23.3082 116.771 -6.32874 109.935 11.5061 108.577C29.3409 107.22 47.1595 111.407 62.5227 120.567C77.8859 129.726 90.043 143.41 97.3297 159.745C104.616 176.079 106.677 194.267 103.229 211.818C99.7805 229.369 90.9924 245.425 78.0674 257.789C65.1423 270.153 48.712 278.221 31.0254 280.887C13.3388 283.553 -4.73958 280.688 -20.7352 272.684C-36.7308 264.68 -49.8619 251.928 -58.331 236.174L-20.5986 215.89C-16.311 223.866 -9.66323 230.322 -1.56521 234.374C6.53282 238.426 15.6853 239.877 24.6394 238.527C33.5935 237.177 41.9116 233.093 48.4551 226.833C54.9986 220.574 59.4477 212.445 61.1933 203.56C62.939 194.674 61.8959 185.466 58.2069 177.197C54.5179 168.927 48.3632 161.999 40.5854 157.362C32.8075 152.725 23.7866 150.605 14.7574 151.292C5.72828 151.98 -2.86783 155.441 -9.85423 161.201L-37.1081 128.15Z" fill="url(#paint0_linear_108_5453)"/>
<path d="M439.907 164.324C429.64 142.626 411.66 125.531 389.472 116.371C367.284 107.211 342.481 106.644 319.898 114.78C297.314 122.916 278.571 139.172 267.323 160.377C256.075 181.582 253.129 206.217 259.058 229.477C264.988 252.737 279.369 272.955 299.396 286.187C319.423 299.42 343.661 304.718 367.383 301.049C391.105 297.381 412.61 285.008 427.705 266.344C442.799 247.68 450.401 224.062 449.027 200.098L391.747 203.381C392.304 213.107 389.219 222.691 383.094 230.265C376.968 237.839 368.241 242.86 358.614 244.349C348.988 245.838 339.151 243.688 331.024 238.318C322.897 232.948 317.061 224.743 314.654 215.304C312.248 205.865 313.444 195.868 318.008 187.262C322.573 178.657 330.179 172.06 339.344 168.758C348.508 165.456 358.574 165.687 367.578 169.404C376.582 173.121 383.879 180.059 388.046 188.864L439.907 164.324Z" fill="url(#paint1_linear_108_5453)"/>
</g>
<defs>
<linearGradient id="paint0_linear_108_5453" x1="-52.9688" y1="235.207" x2="69.8951" y2="224.148" gradientUnits="userSpaceOnUse">
<stop stop-color="white" stop-opacity="0"/>
<stop offset="1" stop-color="white" stop-opacity="0.28"/>
</linearGradient>
<linearGradient id="paint1_linear_108_5453" x1="370.585" y1="294.644" x2="401.226" y2="160.82" gradientUnits="userSpaceOnUse">
<stop stop-color="white" stop-opacity="0"/>
<stop offset="1" stop-color="white" stop-opacity="0.28"/>
</linearGradient>
<clipPath id="clip0_108_5453">
<path d="M0 0H375V208C375 225.673 360.673 240 343 240H32C14.3269 240 0 225.673 0 208V0Z" fill="white"/>
</clipPath>
</defs>
</svg>
