<svg width="24" height="22" viewBox="0 0 24 22" fill="none" xmlns="http://www.w3.org/2000/svg">
<path fill-rule="evenodd" clip-rule="evenodd" d="M8.64174 0.500027C4.37548 0.500027 0.916992 3.61897 0.916992 7.46637V14.5337C0.916992 18.3811 4.37548 21.5 8.64174 21.5H15.3589C19.6252 21.5 23.0837 18.3811 23.0837 14.5337V7.46637C23.0837 3.61897 19.6252 0.500027 15.3589 0.500027H8.64174ZM6.51464 15.5433C6.51464 15.0415 6.96574 14.6346 7.52221 14.6346H10.8808C11.4373 14.6346 11.8884 15.0415 11.8884 15.5433C11.8884 16.0451 11.4373 16.452 10.8808 16.452H7.52221C6.96574 16.452 6.51464 16.0451 6.51464 15.5433ZM7.52221 10.5962C6.96574 10.5962 6.51464 11.003 6.51464 11.5048C6.51464 12.0067 6.96574 12.4135 7.52221 12.4135H16.4784C17.0349 12.4135 17.486 12.0067 17.486 11.5048C17.486 11.003 17.0349 10.5962 16.4784 10.5962H7.52221ZM6.51464 7.46637C6.51464 6.96454 6.96574 6.55772 7.52221 6.55772H16.4784C17.0349 6.55772 17.486 6.96454 17.486 7.46637C17.486 7.96821 17.0349 8.37503 16.4784 8.37503H7.52221C6.96574 8.37503 6.51464 7.96821 6.51464 7.46637Z" fill="#94A3B8"/>
</svg>
