<svg width="94" height="94" viewBox="0 0 94 94" fill="none" xmlns="http://www.w3.org/2000/svg">
<path fill-rule="evenodd" clip-rule="evenodd" d="M47 88.9189C70.1512 88.9189 88.9189 70.1512 88.9189 47C88.9189 23.8488 70.1512 5.08108 47 5.08108C23.8488 5.08108 5.08108 23.8488 5.08108 47C5.08108 70.1512 23.8488 88.9189 47 88.9189ZM47 94C72.9574 94 94 72.9574 94 47C94 21.0426 72.9574 0 47 0C21.0426 0 0 21.0426 0 47C0 72.9574 21.0426 94 47 94Z" fill="#0F172A"/>
<path fill-rule="evenodd" clip-rule="evenodd" d="M48.2703 36.8378C49.6734 36.8378 50.8108 37.9753 50.8108 39.3784V54.6474C50.8108 56.4668 50.16 58.2261 48.976 59.6075L46.3884 62.6263C45.4753 63.6916 43.8714 63.815 42.8061 62.9019C41.7408 61.9888 41.6174 60.3849 42.5305 59.3196L45.1181 56.3008C45.5128 55.8403 45.7297 55.2539 45.7297 54.6474V39.3784C45.7297 37.9753 46.8672 36.8378 48.2703 36.8378Z" fill="#0F172A"/>
<path fill-rule="evenodd" clip-rule="evenodd" d="M64.4034 71.0682C65.1419 72.2612 64.7735 73.827 63.5804 74.5655C57.1917 78.5204 51.8088 80.7801 46.2481 80.7937C40.671 80.8074 35.3596 78.5624 29.1117 74.5418C27.9318 73.7825 27.5908 72.2105 28.3501 71.0306C29.1093 69.8507 30.6814 69.5097 31.8613 70.269C37.8039 74.0931 42.1116 75.7228 46.2356 75.7126C50.376 75.7025 54.7763 74.0398 60.906 70.2453C62.099 69.5067 63.6649 69.8752 64.4034 71.0682Z" fill="#0F172A"/>
<path fill-rule="evenodd" clip-rule="evenodd" d="M63.5135 31.7568C64.9166 31.7568 66.0541 32.8942 66.0541 34.2973V40.0135C66.0541 41.4166 64.9166 42.5541 63.5135 42.5541C62.1104 42.5541 60.973 41.4166 60.973 40.0135V34.2973C60.973 32.8942 62.1104 31.7568 63.5135 31.7568Z" fill="#0F172A"/>
<path fill-rule="evenodd" clip-rule="evenodd" d="M29.2162 31.7568C30.6193 31.7568 31.7568 32.8942 31.7568 34.2973V40.0135C31.7568 41.4166 30.6193 42.5541 29.2162 42.5541C27.8131 42.5541 26.6757 41.4166 26.6757 40.0135V34.2973C26.6757 32.8942 27.8131 31.7568 29.2162 31.7568Z" fill="#0F172A"/>
</svg>
