<svg width="165" height="113" viewBox="0 0 165 113" fill="none" xmlns="http://www.w3.org/2000/svg">
<path d="M159.675 100.1V112.482H155.46V96.6452H159.426L159.675 100.1ZM164.447 96.5427L164.374 100.451C164.169 100.422 163.92 100.397 163.627 100.378C163.344 100.348 163.086 100.334 162.851 100.334C162.256 100.334 161.739 100.412 161.3 100.568C160.871 100.714 160.509 100.934 160.217 101.227C159.934 101.519 159.719 101.875 159.573 102.295C159.436 102.715 159.358 103.193 159.339 103.73L158.49 103.466C158.49 102.441 158.592 101.5 158.797 100.641C159.002 99.7726 159.299 99.0164 159.69 98.3724C160.09 97.7283 160.578 97.2307 161.154 96.8794C161.729 96.5281 162.388 96.3525 163.13 96.3525C163.364 96.3525 163.603 96.372 163.847 96.411C164.091 96.4403 164.291 96.4842 164.447 96.5427Z" fill="#0F172A"/>
<path d="M151.976 96.6452V112.482H147.746V96.6452H151.976ZM147.483 92.5176C147.483 91.9028 147.697 91.3954 148.127 90.9953C148.556 90.5952 149.132 90.3952 149.854 90.3952C150.566 90.3952 151.137 90.5952 151.566 90.9953C152.005 91.3954 152.225 91.9028 152.225 92.5176C152.225 93.1323 152.005 93.6397 151.566 94.0398C151.137 94.4399 150.566 94.6399 149.854 94.6399C149.132 94.6399 148.556 94.4399 148.127 94.0398C147.697 93.6397 147.483 93.1323 147.483 92.5176Z" fill="#0F172A"/>
<path d="M139.988 109.028V90H144.233V112.482H140.413L139.988 109.028ZM129.977 104.754V104.447C129.977 103.237 130.113 102.139 130.387 101.153C130.66 100.158 131.06 99.3043 131.587 98.5919C132.114 97.8796 132.763 97.3283 133.533 96.9379C134.304 96.5476 135.183 96.3525 136.168 96.3525C137.095 96.3525 137.905 96.5476 138.598 96.9379C139.3 97.3283 139.896 97.8845 140.384 98.6066C140.881 99.3189 141.281 100.163 141.584 101.139C141.886 102.105 142.106 103.164 142.243 104.315V104.988C142.106 106.091 141.886 107.116 141.584 108.062C141.281 109.009 140.881 109.838 140.384 110.55C139.896 111.253 139.3 111.799 138.598 112.19C137.895 112.58 137.076 112.775 136.139 112.775C135.153 112.775 134.275 112.575 133.504 112.175C132.743 111.775 132.099 111.214 131.572 110.492C131.055 109.77 130.66 108.921 130.387 107.945C130.113 106.969 129.977 105.906 129.977 104.754ZM134.192 104.447V104.754C134.192 105.408 134.241 106.018 134.339 106.584C134.446 107.15 134.617 107.652 134.851 108.091C135.095 108.521 135.407 108.857 135.788 109.101C136.178 109.336 136.651 109.453 137.207 109.453C137.929 109.453 138.525 109.292 138.993 108.97C139.461 108.638 139.818 108.184 140.062 107.608C140.315 107.033 140.462 106.369 140.501 105.618V103.7C140.471 103.085 140.384 102.534 140.237 102.046C140.101 101.549 139.896 101.124 139.622 100.773C139.359 100.422 139.027 100.148 138.627 99.9532C138.237 99.758 137.773 99.6604 137.237 99.6604C136.69 99.6604 136.222 99.7873 135.831 100.041C135.441 100.285 135.124 100.622 134.88 101.051C134.646 101.48 134.47 101.988 134.353 102.573C134.246 103.149 134.192 103.773 134.192 104.447Z" fill="#0F172A"/>
<path d="M123.141 108.911V101.856C123.141 101.349 123.058 100.914 122.892 100.553C122.727 100.182 122.468 99.8946 122.117 99.6897C121.775 99.4848 121.331 99.3823 120.785 99.3823C120.316 99.3823 119.911 99.4653 119.57 99.6312C119.228 99.7873 118.965 100.017 118.779 100.319C118.594 100.612 118.501 100.958 118.501 101.358H114.286C114.286 100.685 114.442 100.046 114.754 99.4409C115.066 98.8359 115.52 98.3041 116.115 97.8454C116.711 97.3771 117.418 97.0111 118.238 96.7477C119.067 96.4842 119.994 96.3525 121.019 96.3525C122.248 96.3525 123.341 96.5574 124.298 96.9672C125.254 97.3771 126.005 97.9918 126.552 98.8115C127.108 99.6312 127.386 100.656 127.386 101.885V108.662C127.386 109.531 127.44 110.243 127.547 110.799C127.654 111.346 127.81 111.824 128.015 112.234V112.482H123.756C123.551 112.053 123.395 111.516 123.288 110.872C123.19 110.219 123.141 109.565 123.141 108.911ZM123.697 102.837L123.727 105.222H121.37C120.814 105.222 120.331 105.286 119.921 105.413C119.511 105.54 119.175 105.72 118.911 105.954C118.648 106.179 118.453 106.442 118.326 106.745C118.209 107.047 118.15 107.379 118.15 107.74C118.15 108.101 118.233 108.428 118.399 108.721C118.565 109.004 118.804 109.228 119.116 109.394C119.428 109.55 119.794 109.628 120.214 109.628C120.848 109.628 121.399 109.501 121.868 109.248C122.336 108.994 122.697 108.682 122.951 108.311C123.214 107.94 123.351 107.589 123.361 107.257L124.473 109.043C124.317 109.443 124.102 109.858 123.829 110.287C123.566 110.716 123.229 111.121 122.819 111.502C122.409 111.873 121.917 112.18 121.341 112.424C120.765 112.658 120.082 112.775 119.292 112.775C118.287 112.775 117.374 112.575 116.555 112.175C115.745 111.765 115.101 111.204 114.622 110.492C114.154 109.77 113.92 108.95 113.92 108.033C113.92 107.203 114.076 106.467 114.388 105.823C114.701 105.179 115.159 104.637 115.764 104.198C116.379 103.749 117.145 103.412 118.062 103.188C118.979 102.954 120.043 102.837 121.253 102.837H123.697Z" fill="#0F172A"/>
<path d="M107.904 99.8507V103.276H96.7799V99.8507H107.904ZM98.0826 91.171V112.482H93.6915V91.171H98.0826ZM111.036 91.171V112.482H106.66V91.171H111.036Z" fill="#0F172A"/>
<path d="M83.5628 96.6452V99.6312H74.3414V96.6452H83.5628ZM76.6248 92.7371H80.8403V107.711C80.8403 108.169 80.8988 108.521 81.0159 108.765C81.1428 109.009 81.3282 109.179 81.5721 109.277C81.8161 109.365 82.1234 109.409 82.4942 109.409C82.7577 109.409 82.9919 109.399 83.1968 109.379C83.4115 109.35 83.592 109.321 83.7384 109.292L83.753 112.395C83.392 112.512 83.0017 112.604 82.5821 112.673C82.1625 112.741 81.699 112.775 81.1916 112.775C80.2645 112.775 79.4546 112.624 78.7618 112.321C78.0787 112.009 77.5518 111.512 77.181 110.828C76.8102 110.145 76.6248 109.248 76.6248 108.135V92.7371Z" fill="#0F172A"/>
<path d="M68.9696 108.106C68.9696 107.803 68.8818 107.53 68.7061 107.286C68.5305 107.042 68.2036 106.818 67.7254 106.613C67.2571 106.398 66.5789 106.203 65.6909 106.028C64.8907 105.852 64.1443 105.632 63.4514 105.369C62.7684 105.096 62.1731 104.769 61.6657 104.388C61.1681 104.008 60.7777 103.559 60.4948 103.042C60.2118 102.515 60.0703 101.915 60.0703 101.241C60.0703 100.578 60.2118 99.9532 60.4948 99.3677C60.7875 98.7822 61.2022 98.265 61.7389 97.8162C62.2854 97.3575 62.9489 97.0014 63.7295 96.7477C64.5199 96.4842 65.4079 96.3525 66.3935 96.3525C67.7694 96.3525 68.9501 96.572 69.9356 97.0111C70.931 97.4502 71.6921 98.0552 72.219 98.8261C72.7557 99.5872 73.024 100.456 73.024 101.432H68.8086C68.8086 101.022 68.7208 100.656 68.5451 100.334C68.3792 100.002 68.1158 99.7434 67.7547 99.558C67.4034 99.3628 66.9448 99.2652 66.3788 99.2652C65.9105 99.2652 65.5055 99.3482 65.164 99.5141C64.8224 99.6702 64.559 99.8849 64.3736 100.158C64.1979 100.422 64.1101 100.714 64.1101 101.036C64.1101 101.28 64.1589 101.5 64.2565 101.695C64.3638 101.88 64.5346 102.051 64.7688 102.207C65.003 102.363 65.3055 102.51 65.6763 102.646C66.0568 102.773 66.5252 102.89 67.0814 102.998C68.2231 103.232 69.2428 103.539 70.1406 103.92C71.0383 104.291 71.7506 104.798 72.2776 105.442C72.8045 106.076 73.068 106.911 73.068 107.945C73.068 108.648 72.9118 109.292 72.5996 109.877C72.2873 110.463 71.8385 110.975 71.253 111.414C70.6675 111.843 69.9649 112.18 69.1452 112.424C68.3353 112.658 67.423 112.775 66.4081 112.775C64.9347 112.775 63.6856 112.512 62.661 111.985C61.6462 111.458 60.8753 110.789 60.3484 109.98C59.8312 109.16 59.5726 108.321 59.5726 107.462H63.5685C63.5881 108.038 63.7344 108.501 64.0076 108.852C64.2906 109.204 64.6468 109.457 65.0761 109.614C65.5153 109.77 65.9885 109.848 66.4959 109.848C67.0424 109.848 67.4961 109.775 67.8572 109.628C68.2182 109.472 68.4915 109.267 68.6769 109.013C68.872 108.75 68.9696 108.448 68.9696 108.106Z" fill="#0F172A"/>
<path d="M56.9234 96.6452V112.482H52.6933V96.6452H56.9234ZM52.4298 92.5176C52.4298 91.9028 52.6445 91.3954 53.0738 90.9953C53.5032 90.5952 54.0789 90.3952 54.801 90.3952C55.5133 90.3952 56.0842 90.5952 56.5135 90.9953C56.9526 91.3954 57.1722 91.9028 57.1722 92.5176C57.1722 93.1323 56.9526 93.6397 56.5135 94.0398C56.0842 94.4399 55.5133 94.6399 54.801 94.6399C54.0789 94.6399 53.5032 94.4399 53.0738 94.0398C52.6445 93.6397 52.4298 93.1323 52.4298 92.5176Z" fill="#0F172A"/>
<path d="M45.6382 108.106C45.6382 107.803 45.5504 107.53 45.3748 107.286C45.1991 107.042 44.8722 106.818 44.3941 106.613C43.9257 106.398 43.2475 106.203 42.3595 106.028C41.5594 105.852 40.8129 105.632 40.1201 105.369C39.437 105.096 38.8418 104.769 38.3344 104.388C37.8367 104.008 37.4464 103.559 37.1634 103.042C36.8804 102.515 36.7389 101.915 36.7389 101.241C36.7389 100.578 36.8804 99.9532 37.1634 99.3677C37.4561 98.7822 37.8709 98.265 38.4076 97.8162C38.954 97.3575 39.6175 97.0014 40.3982 96.7477C41.1886 96.4842 42.0766 96.3525 43.0621 96.3525C44.438 96.3525 45.6187 96.572 46.6043 97.0111C47.5996 97.4502 48.3607 98.0552 48.8877 98.8261C49.4243 99.5872 49.6927 100.456 49.6927 101.432H45.4772C45.4772 101.022 45.3894 100.656 45.2138 100.334C45.0479 100.002 44.7844 99.7434 44.4234 99.558C44.0721 99.3628 43.6134 99.2652 43.0475 99.2652C42.5791 99.2652 42.1741 99.3482 41.8326 99.5141C41.4911 99.6702 41.2276 99.8849 41.0422 100.158C40.8666 100.422 40.7787 100.714 40.7787 101.036C40.7787 101.28 40.8275 101.5 40.9251 101.695C41.0325 101.88 41.2032 102.051 41.4374 102.207C41.6716 102.363 41.9741 102.51 42.3449 102.646C42.7255 102.773 43.1939 102.89 43.7501 102.998C44.8917 103.232 45.9115 103.539 46.8092 103.92C47.7069 104.291 48.4193 104.798 48.9462 105.442C49.4731 106.076 49.7366 106.911 49.7366 107.945C49.7366 108.648 49.5805 109.292 49.2682 109.877C48.956 110.463 48.5071 110.975 47.9216 111.414C47.3361 111.843 46.6336 112.18 45.8139 112.424C45.004 112.658 44.0916 112.775 43.0768 112.775C41.6033 112.775 40.3543 112.512 39.3297 111.985C38.3148 111.458 37.544 110.789 37.017 109.98C36.4999 109.16 36.2413 108.321 36.2413 107.462H40.2372C40.2567 108.038 40.4031 108.501 40.6763 108.852C40.9593 109.204 41.3154 109.457 41.7448 109.614C42.1839 109.77 42.6572 109.848 43.1646 109.848C43.711 109.848 44.1648 109.775 44.5258 109.628C44.8869 109.472 45.1601 109.267 45.3455 109.013C45.5407 108.75 45.6382 108.448 45.6382 108.106Z" fill="#0F172A"/>
<path d="M30.2401 108.106C30.2401 107.803 30.1523 107.53 29.9766 107.286C29.801 107.042 29.4741 106.818 28.996 106.613C28.5276 106.398 27.8494 106.203 26.9614 106.028C26.1613 105.852 25.4148 105.632 24.7219 105.369C24.0389 105.096 23.4436 104.769 22.9362 104.388C22.4386 104.008 22.0483 103.559 21.7653 103.042C21.4823 102.515 21.3408 101.915 21.3408 101.241C21.3408 100.578 21.4823 99.9532 21.7653 99.3677C22.058 98.7822 22.4727 98.265 23.0094 97.8162C23.5559 97.3575 24.2194 97.0014 25.0001 96.7477C25.7905 96.4842 26.6784 96.3525 27.664 96.3525C29.0399 96.3525 30.2206 96.572 31.2061 97.0111C32.2015 97.4502 32.9626 98.0552 33.4895 98.8261C34.0262 99.5872 34.2946 100.456 34.2946 101.432H30.0791C30.0791 101.022 29.9913 100.656 29.8156 100.334C29.6497 100.002 29.3863 99.7434 29.0252 99.558C28.6739 99.3628 28.2153 99.2652 27.6494 99.2652C27.181 99.2652 26.776 99.3482 26.4345 99.5141C26.0929 99.6702 25.8295 99.8849 25.6441 100.158C25.4684 100.422 25.3806 100.714 25.3806 101.036C25.3806 101.28 25.4294 101.5 25.527 101.695C25.6343 101.88 25.8051 102.051 26.0393 102.207C26.2735 102.363 26.576 102.51 26.9468 102.646C27.3273 102.773 27.7957 102.89 28.3519 102.998C29.4936 103.232 30.5133 103.539 31.4111 103.92C32.3088 104.291 33.0211 104.798 33.5481 105.442C34.075 106.076 34.3385 106.911 34.3385 107.945C34.3385 108.648 34.1823 109.292 33.8701 109.877C33.5578 110.463 33.109 110.975 32.5235 111.414C31.938 111.843 31.2354 112.18 30.4157 112.424C29.6058 112.658 28.6935 112.775 27.6786 112.775C26.2052 112.775 24.9561 112.512 23.9316 111.985C22.9167 111.458 22.1458 110.789 21.6189 109.98C21.1017 109.16 20.8431 108.321 20.8431 107.462H24.839C24.8586 108.038 25.0049 108.501 25.2782 108.852C25.5611 109.204 25.9173 109.457 26.3467 109.614C26.7858 109.77 27.259 109.848 27.7664 109.848C28.3129 109.848 28.7666 109.775 29.1277 109.628C29.4887 109.472 29.762 109.267 29.9474 109.013C30.1425 108.75 30.2401 108.448 30.2401 108.106Z" fill="#0F172A"/>
<path d="M10.4655 94.8156L4.66921 112.482H0L7.91863 91.171H10.8899L10.4655 94.8156ZM15.281 112.482L9.47015 94.8156L9.00176 91.171H12.0024L19.9649 112.482H15.281ZM15.0176 104.549V107.989H3.76171V104.549H15.0176Z" fill="#0F172A"/>
<g clip-path="url(#clip0_108_5975)">
<path d="M41 24C41 10.7452 51.7452 0 65 0H98.6455C111.9 0 122.646 10.7452 122.646 24V57.1609C122.646 70.4157 111.9 81.1609 98.6455 81.1609H65C51.7452 81.1609 41 70.4157 41 57.1609V24Z" fill="#2B64AF"/>
<path d="M107.6 66.1152V40.5068V29.6313C107.6 22.0602 101.466 15.9227 93.8993 15.9227C86.1974 15.9227 80.0087 22.2723 80.2025 29.9758L80.4274 38.9276H70.5088C62.8005 38.9276 56.6361 45.337 56.9324 53.0438C57.2129 60.3428 63.2085 66.1152 70.5088 66.1152H107.6Z" fill="#329ED8"/>
<path fill-rule="evenodd" clip-rule="evenodd" d="M93.8993 16.9684C86.7848 16.9684 81.0685 22.8336 81.2472 29.9496L81.4991 39.9733H70.5088C63.3935 39.9733 57.7033 45.8897 57.9767 53.0036L57.9972 53.5361C58.2448 59.9762 63.5348 65.0695 69.9762 65.0695H81.4725V67.1608H69.9762C62.4117 67.1608 56.1993 61.1796 55.9085 53.6164L55.8881 53.0839C55.569 44.7844 62.2075 37.8819 70.5088 37.8819H79.3557L79.1576 30.0021C78.9492 21.7109 85.6099 14.877 93.8993 14.877C102.043 14.877 108.646 21.4828 108.646 29.6313V39.9733H106.555V29.6313C106.555 22.6378 100.889 16.9684 93.8993 16.9684Z" fill="white"/>
<path d="M76.0485 24.5242C76.0485 30.3366 71.3366 35.0485 65.5242 35.0485C59.7119 35.0485 55 30.3366 55 24.5242C55 18.7119 59.7119 14 65.5242 14C71.3366 14 76.0485 18.7119 76.0485 24.5242Z" fill="white"/>
</g>
<defs>
<clipPath id="clip0_108_5975">
<rect width="82" height="82" fill="white" transform="translate(41)"/>
</clipPath>
</defs>
</svg>
