<svg width="44" height="44" viewBox="0 0 44 44" fill="none" xmlns="http://www.w3.org/2000/svg">
<g clip-path="url(#clip0_111_4994)">
<path d="M0 12.878C0 5.76572 5.76572 0 12.878 0H30.9317C38.0441 0 43.8098 5.76572 43.8098 12.878V30.6717C43.8098 37.784 38.0441 43.5497 30.9317 43.5497H12.878C5.76572 43.5497 0 37.784 0 30.6717V12.878Z" fill="#2B64AF"/>
<path d="M35.7369 35.4764V21.7354V15.8997C35.7369 11.8372 32.4453 8.54388 28.3851 8.54388C24.2524 8.54388 20.9316 11.951 21.0356 16.0846L21.1563 20.888H15.8341C11.6979 20.888 8.39021 24.3272 8.5492 28.4625C8.69971 32.3791 11.9169 35.4764 15.8341 35.4764H35.7369Z" fill="#329ED8"/>
<path fill-rule="evenodd" clip-rule="evenodd" d="M28.3851 9.105C24.5676 9.105 21.5003 12.2522 21.5962 16.0705L21.7313 21.4491H15.8341C12.0161 21.4491 8.96284 24.6238 9.10955 28.441L9.12055 28.7267C9.25341 32.1824 12.0919 34.9154 15.5483 34.9154H21.7171V36.0375H15.5483C11.4893 36.0375 8.15582 32.8281 7.99978 28.7698L7.98883 28.4841C7.81761 24.0307 11.3797 20.3269 15.8341 20.3269H20.5812L20.4749 16.0987C20.3631 11.6498 23.9371 7.98279 28.3851 7.98279C32.755 7.98279 36.2977 11.5274 36.2977 15.8997V21.4491H35.1761V15.8997C35.1761 12.1471 32.1357 9.105 28.3851 9.105Z" fill="white"/>
<path d="M18.8065 13.1593C18.8065 16.2782 16.2782 18.8065 13.1593 18.8065C10.0405 18.8065 7.51221 16.2782 7.51221 13.1593C7.51221 10.0405 10.0405 7.51221 13.1593 7.51221C16.2782 7.51221 18.8065 10.0405 18.8065 13.1593Z" fill="white"/>
</g>
<defs>
<clipPath id="clip0_111_4994">
<rect width="44" height="44" fill="white"/>
</clipPath>
</defs>
</svg>
