<svg width="96" height="60" viewBox="0 0 96 60" fill="none" xmlns="http://www.w3.org/2000/svg">
<path d="M14.2482 14V5.06H17.5002C18.1002 5.06 18.6282 5.172 19.0842 5.396C19.5482 5.612 19.9082 5.932 20.1642 6.356C20.4202 6.772 20.5482 7.272 20.5482 7.856C20.5482 8.432 20.4162 8.928 20.1522 9.344C19.8962 9.76 19.5402 10.08 19.0842 10.304C18.6282 10.528 18.1002 10.64 17.5002 10.64H15.6642V14H14.2482ZM15.6642 9.38H17.5362C17.8562 9.38 18.1362 9.316 18.3762 9.188C18.6162 9.06 18.8042 8.884 18.9402 8.66C19.0762 8.428 19.1442 8.156 19.1442 7.844C19.1442 7.532 19.0762 7.264 18.9402 7.04C18.8042 6.808 18.6162 6.632 18.3762 6.512C18.1362 6.384 17.8562 6.32 17.5362 6.32H15.6642V9.38ZM24.7717 14.144C24.1477 14.144 23.5757 13.996 23.0557 13.7C22.5437 13.404 22.1357 13 21.8317 12.488C21.5277 11.976 21.3757 11.396 21.3757 10.748C21.3757 10.092 21.5277 9.512 21.8317 9.008C22.1357 8.496 22.5437 8.096 23.0557 7.808C23.5677 7.512 24.1397 7.364 24.7717 7.364C25.4117 7.364 25.9837 7.512 26.4877 7.808C26.9997 8.096 27.4037 8.496 27.6997 9.008C28.0037 9.512 28.1557 10.092 28.1557 10.748C28.1557 11.404 28.0037 11.988 27.6997 12.5C27.3957 13.012 26.9877 13.416 26.4757 13.712C25.9637 14 25.3957 14.144 24.7717 14.144ZM24.7717 12.884C25.1557 12.884 25.4957 12.792 25.7917 12.608C26.0877 12.424 26.3197 12.172 26.4877 11.852C26.6637 11.524 26.7517 11.156 26.7517 10.748C26.7517 10.34 26.6637 9.976 26.4877 9.656C26.3197 9.336 26.0877 9.084 25.7917 8.9C25.4957 8.716 25.1557 8.624 24.7717 8.624C24.3957 8.624 24.0557 8.716 23.7517 8.9C23.4557 9.084 23.2197 9.336 23.0437 9.656C22.8757 9.976 22.7917 10.34 22.7917 10.748C22.7917 11.156 22.8757 11.524 23.0437 11.852C23.2197 12.172 23.4557 12.424 23.7517 12.608C24.0557 12.792 24.3957 12.884 24.7717 12.884ZM30.9343 14L28.7023 7.508H30.1423L31.8463 12.68H31.3423L33.0823 7.508H34.3183L36.0463 12.68H35.5423L37.2583 7.508H38.6983L36.4543 14H35.2303L33.4783 8.708H33.9223L32.1703 14H30.9343ZM42.5588 14.144C41.9108 14.144 41.3348 13.996 40.8308 13.7C40.3348 13.396 39.9468 12.988 39.6668 12.476C39.3868 11.956 39.2468 11.376 39.2468 10.736C39.2468 10.08 39.3868 9.5 39.6668 8.996C39.9548 8.492 40.3388 8.096 40.8188 7.808C41.2988 7.512 41.8428 7.364 42.4508 7.364C42.9388 7.364 43.3748 7.448 43.7588 7.616C44.1428 7.784 44.4668 8.016 44.7308 8.312C44.9948 8.6 45.1948 8.932 45.3307 9.308C45.4748 9.684 45.5468 10.084 45.5468 10.508C45.5468 10.612 45.5428 10.72 45.5348 10.832C45.5268 10.944 45.5108 11.048 45.4868 11.144H40.3148V10.064H44.7188L44.0708 10.556C44.1508 10.164 44.1228 9.816 43.9868 9.512C43.8588 9.2 43.6588 8.956 43.3868 8.78C43.1228 8.596 42.8108 8.504 42.4508 8.504C42.0908 8.504 41.7708 8.596 41.4908 8.78C41.2108 8.956 40.9948 9.212 40.8428 9.548C40.6908 9.876 40.6308 10.276 40.6628 10.748C40.6228 11.188 40.6828 11.572 40.8428 11.9C41.0108 12.228 41.2428 12.484 41.5388 12.668C41.8428 12.852 42.1868 12.944 42.5708 12.944C42.9628 12.944 43.2948 12.856 43.5668 12.68C43.8468 12.504 44.0668 12.276 44.2268 11.996L45.3307 12.536C45.2028 12.84 45.0028 13.116 44.7308 13.364C44.4668 13.604 44.1468 13.796 43.7708 13.94C43.4028 14.076 42.9988 14.144 42.5588 14.144ZM46.8701 14V7.508H48.1661V8.816L48.0461 8.624C48.1901 8.2 48.4221 7.896 48.7421 7.712C49.0621 7.52 49.4461 7.424 49.8941 7.424H50.2901V8.66H49.7261C49.2781 8.66 48.9141 8.8 48.6341 9.08C48.3621 9.352 48.2261 9.744 48.2261 10.256V14H46.8701ZM54.2658 14.144C53.6178 14.144 53.0418 13.996 52.5378 13.7C52.0418 13.396 51.6538 12.988 51.3738 12.476C51.0938 11.956 50.9538 11.376 50.9538 10.736C50.9538 10.08 51.0938 9.5 51.3738 8.996C51.6618 8.492 52.0458 8.096 52.5258 7.808C53.0058 7.512 53.5498 7.364 54.1578 7.364C54.6458 7.364 55.0818 7.448 55.4658 7.616C55.8498 7.784 56.1738 8.016 56.4378 8.312C56.7018 8.6 56.9018 8.932 57.0378 9.308C57.1818 9.684 57.2538 10.084 57.2538 10.508C57.2538 10.612 57.2498 10.72 57.2418 10.832C57.2338 10.944 57.2178 11.048 57.1938 11.144H52.0218V10.064H56.4258L55.7778 10.556C55.8578 10.164 55.8298 9.816 55.6938 9.512C55.5658 9.2 55.3658 8.956 55.0938 8.78C54.8298 8.596 54.5178 8.504 54.1578 8.504C53.7978 8.504 53.4778 8.596 53.1978 8.78C52.9178 8.956 52.7018 9.212 52.5498 9.548C52.3978 9.876 52.3378 10.276 52.3698 10.748C52.3298 11.188 52.3898 11.572 52.5498 11.9C52.7178 12.228 52.9498 12.484 53.2458 12.668C53.5498 12.852 53.8938 12.944 54.2778 12.944C54.6698 12.944 55.0018 12.856 55.2738 12.68C55.5538 12.504 55.7738 12.276 55.9338 11.996L57.0378 12.536C56.9098 12.84 56.7098 13.116 56.4378 13.364C56.1738 13.604 55.8538 13.796 55.4778 13.94C55.1098 14.076 54.7058 14.144 54.2658 14.144ZM61.5772 14.144C60.9532 14.144 60.3932 13.996 59.8972 13.7C59.4092 13.396 59.0212 12.988 58.7332 12.476C58.4532 11.964 58.3132 11.388 58.3132 10.748C58.3132 10.108 58.4572 9.532 58.7452 9.02C59.0332 8.508 59.4212 8.104 59.9092 7.808C60.3972 7.512 60.9492 7.364 61.5652 7.364C62.0852 7.364 62.5452 7.468 62.9452 7.676C63.3452 7.884 63.6612 8.172 63.8932 8.54L63.6892 8.852V4.916H65.0332V14H63.7492V12.68L63.9052 12.932C63.6812 13.324 63.3612 13.624 62.9452 13.832C62.5292 14.04 62.0732 14.144 61.5772 14.144ZM61.7092 12.884C62.0852 12.884 62.4212 12.792 62.7172 12.608C63.0212 12.424 63.2572 12.172 63.4252 11.852C63.6012 11.524 63.6892 11.156 63.6892 10.748C63.6892 10.34 63.6012 9.976 63.4252 9.656C63.2572 9.336 63.0212 9.084 62.7172 8.9C62.4212 8.716 62.0852 8.624 61.7092 8.624C61.3332 8.624 60.9932 8.716 60.6892 8.9C60.3852 9.084 60.1492 9.336 59.9812 9.656C59.8132 9.976 59.7292 10.34 59.7292 10.748C59.7292 11.156 59.8132 11.524 59.9812 11.852C60.1492 12.172 60.3812 12.424 60.6772 12.608C60.9812 12.792 61.3252 12.884 61.7092 12.884ZM72.1819 14.144C71.6779 14.144 71.2179 14.04 70.8019 13.832C70.3939 13.624 70.0779 13.324 69.8539 12.932L70.0099 12.68V14H68.7139V4.916H70.0699V8.852L69.8539 8.54C70.0939 8.172 70.4139 7.884 70.8139 7.676C71.2139 7.468 71.6699 7.364 72.1819 7.364C72.7979 7.364 73.3499 7.512 73.8379 7.808C74.3339 8.104 74.7219 8.508 75.0019 9.02C75.2899 9.532 75.4339 10.108 75.4339 10.748C75.4339 11.388 75.2899 11.964 75.0019 12.476C74.7219 12.988 74.3379 13.396 73.8499 13.7C73.3619 13.996 72.8059 14.144 72.1819 14.144ZM72.0499 12.884C72.4339 12.884 72.7739 12.792 73.0699 12.608C73.3659 12.424 73.5979 12.172 73.7659 11.852C73.9419 11.524 74.0299 11.156 74.0299 10.748C74.0299 10.34 73.9419 9.976 73.7659 9.656C73.5979 9.336 73.3659 9.084 73.0699 8.9C72.7739 8.716 72.4339 8.624 72.0499 8.624C71.6739 8.624 71.3339 8.716 71.0299 8.9C70.7339 9.084 70.4979 9.336 70.3219 9.656C70.1539 9.976 70.0699 10.34 70.0699 10.748C70.0699 11.156 70.1539 11.524 70.3219 11.852C70.4979 12.172 70.7339 12.424 71.0299 12.608C71.3339 12.792 71.6739 12.884 72.0499 12.884ZM77.2118 16.64C77.0518 16.64 76.8918 16.624 76.7318 16.592C76.5798 16.568 76.4398 16.528 76.3118 16.472V15.308C76.4078 15.332 76.5238 15.352 76.6598 15.368C76.7958 15.392 76.9278 15.404 77.0558 15.404C77.4318 15.404 77.7078 15.32 77.8838 15.152C78.0678 14.992 78.2318 14.744 78.3758 14.408L78.8078 13.424L78.7838 14.564L75.9758 7.508H77.4277L79.5038 12.92H79.0117L81.0758 7.508H82.5398L79.6718 14.708C79.5198 15.092 79.3278 15.428 79.0958 15.716C78.8718 16.012 78.6038 16.24 78.2918 16.4C77.9878 16.56 77.6278 16.64 77.2118 16.64Z" fill="#0F172A"/>
<path d="M4.66666 28.5333L1 29.7333V38.4C1 46.9334 1.06666 47.2 3 50.3334C4.46666 52.6667 6.06664 54.1334 8.73334 55.6C12.2 57.4667 12.5333 57.5334 14.7333 56.6667C18.2 55.2667 23.2 50.2 24 47.4C24.3333 46.0667 24.6666 41.6 24.6666 37.4667V29.9333L22.2 28.8667C18.4 27.2667 9.19999 27.0667 4.66666 28.5333ZM14.6666 34C15.4 34.7333 16 35.8666 16 36.5333C16 37.3334 16.7333 37.9334 18.2 38.3334C20.0666 38.9334 20.3333 39.2667 20.3333 41.3334C20.3333 43.3334 20.0666 43.7334 18.2666 44.2667C16.8 44.7334 16.0666 45.4667 15.6 46.9334C14.5333 50.5334 9.33334 49.9334 9.33334 46.2667C9.33334 45.0667 8.93334 44.6667 7.86664 44.6667C6.19999 44.6667 4 42.8667 4 41.4667C4 39.8667 6.06664 38 7.79999 38C8.93334 38 9.33334 37.6 9.33334 36.5333C9.33334 34.8666 11.1333 32.6666 12.4666 32.6666C12.9333 32.6666 13.9333 33.2666 14.6666 34Z" fill="#2B64AF"/>
<path d="M14.6666 34C15.4 34.7334 16 35.8667 16 36.5334C16 37.3334 16.7333 37.9334 18.2 38.3334C20.0666 38.9334 20.3333 39.2667 20.3333 41.3334C20.3333 43.3334 20.0666 43.7334 18.2666 44.2667C16.8 44.7334 16.0666 45.4667 15.6 46.9334C14.5333 50.5334 9.33334 49.9334 9.33334 46.2667C9.33334 45.0667 8.93334 44.6667 7.86664 44.6667C6.2 44.6667 4 42.8667 4 41.4667C4 39.8667 6.06665 38.0001 7.79999 38.0001C8.93334 38.0001 9.33334 37.6001 9.33334 36.5334C9.33334 34.8667 11.1333 32.6667 12.4666 32.6667C12.9333 32.6667 13.9333 33.2667 14.6666 34Z" fill="#2B64AF"/>
<path d="M9.5 35.75C9.5 33.9551 10.9551 32.5 12.75 32.5C14.545 32.5 16 33.9551 16 35.75V46.75C16 48.545 14.545 50 12.75 50C10.9551 50 9.5 48.545 9.5 46.75V35.75Z" fill="white"/>
<path fill-rule="evenodd" clip-rule="evenodd" d="M15.5 46.75V35.75C15.5 34.2312 14.2688 33 12.75 33C11.2312 33 10 34.2312 10 35.75V46.75C10 48.2688 11.2312 49.5 12.75 49.5C14.2688 49.5 15.5 48.2688 15.5 46.75ZM12.75 32.5C10.9551 32.5 9.5 33.9551 9.5 35.75V46.75C9.5 48.545 10.9551 50 12.75 50C14.545 50 16 48.545 16 46.75V35.75C16 33.9551 14.545 32.5 12.75 32.5Z" fill="white"/>
<path d="M18.5058 38.0961C20.2892 38.108 21.7252 39.5633 21.7134 41.3466C21.7015 43.13 20.2463 44.5661 18.4629 44.5542L7.22902 44.4796C5.44567 44.4677 4.00959 43.0124 4.02144 41.2291C4.03329 39.4457 5.48857 38.0096 7.27192 38.0215L18.5058 38.0961Z" fill="white"/>
<path d="M16 44.5V38.3776V35.7775C16 33.9674 14.5327 32.5 12.7226 32.5C10.8803 32.5 9.39987 34.0181 9.44622 35.8598L9.50002 38H7.12742C5.28353 38 3.80897 39.5324 3.87983 41.3749C3.94695 43.12 5.38113 44.5 7.12742 44.5H16Z" fill="#329ED8"/>
<path fill-rule="evenodd" clip-rule="evenodd" d="M12.7226 32.75C11.0207 32.75 9.65332 34.1523 9.69607 35.8536L9.75632 38.25H7.12737C5.42532 38.25 4.06417 39.6646 4.12959 41.3654L4.13448 41.4927C4.1937 43.0324 5.45912 44.2501 6.99997 44.2501H9.74997V44.7501H6.99997C5.19047 44.7501 3.7044 43.3201 3.63485 41.5119L3.62996 41.3846C3.55364 39.4003 5.14162 37.75 7.12737 37.75H9.24362L9.19622 35.8661C9.14637 33.8839 10.7397 32.25 12.7226 32.25C14.6707 32.25 16.25 33.8293 16.25 35.7775V38.25H15.75V35.7775C15.75 34.1055 14.3946 32.75 12.7226 32.75Z" fill="white"/>
<path d="M85.785 46.2032V36H87.863V48.0001H85.988L85.785 46.2032ZM80.3555 43.8751V43.711C80.3555 43.0651 80.428 42.4792 80.574 41.9531C80.725 41.4219 80.944 40.9662 81.2305 40.586C81.517 40.2058 81.863 39.9115 82.2695 39.7031C82.681 39.4948 83.147 39.3906 83.668 39.3906C84.173 39.3906 84.613 39.4922 84.988 39.6953C85.3685 39.8985 85.6915 40.1875 85.957 40.5625C86.2275 40.9375 86.444 41.3828 86.6055 41.8985C86.767 42.4089 86.884 42.9714 86.957 43.586V44.0313C86.884 44.6303 86.767 45.1798 86.6055 45.6798C86.444 46.1798 86.2275 46.6173 85.957 46.9923C85.6915 47.3621 85.3685 47.6485 84.988 47.8516C84.608 48.0548 84.1625 48.1563 83.652 48.1563C83.1365 48.1563 82.673 48.0496 82.2615 47.836C81.8555 47.6225 81.509 47.323 81.2225 46.9376C80.9415 46.5522 80.725 46.099 80.574 45.5782C80.428 45.0574 80.3555 44.4897 80.3555 43.8751ZM82.4255 43.711V43.8751C82.4255 44.2397 82.457 44.5808 82.5195 44.8985C82.582 45.2162 82.6835 45.4975 82.824 45.7423C82.9645 45.9818 83.1445 46.1693 83.363 46.3048C83.587 46.4402 83.858 46.5079 84.1755 46.5079C84.582 46.5079 84.915 46.4193 85.1755 46.2423C85.4415 46.06 85.647 45.8126 85.793 45.5001C85.9385 45.1824 86.0325 44.8256 86.074 44.4298V43.2031C86.053 42.8906 85.9985 42.6016 85.91 42.336C85.8265 42.0703 85.707 41.8412 85.5505 41.6485C85.3995 41.4558 85.212 41.3047 84.988 41.1953C84.764 41.086 84.4985 41.0313 84.1915 41.0313C83.8735 41.0313 83.6025 41.1016 83.379 41.2422C83.155 41.3776 82.9725 41.5677 82.832 41.8125C82.6915 42.0573 82.587 42.3412 82.5195 42.6641C82.457 42.987 82.4255 43.336 82.4255 43.711Z" fill="#0F172A"/>
<path d="M79.2259 39.5469V48.0001H77.1554V39.5469H79.2259ZM77.0149 37.336C77.0149 37.0287 77.1189 36.7735 77.3274 36.5703C77.5409 36.3672 77.8274 36.2656 78.1869 36.2656C78.5459 36.2656 78.8299 36.3672 79.0384 36.5703C79.2519 36.7735 79.3584 37.0287 79.3584 37.336C79.3584 37.638 79.2519 37.8906 79.0384 38.0938C78.8299 38.2969 78.5459 38.3985 78.1869 38.3985C77.8274 38.3985 77.5409 38.2969 77.3274 38.0938C77.1189 37.8906 77.0149 37.638 77.0149 37.336Z" fill="#0F172A"/>
<path d="M73.0574 46.9922C73.0574 46.6797 73.1644 46.4167 73.3779 46.2031C73.5914 45.9896 73.8804 45.8828 74.2449 45.8828C74.6094 45.8828 74.8984 45.9896 75.1119 46.2031C75.3254 46.4167 75.4324 46.6797 75.4324 46.9922C75.4324 47.2995 75.3254 47.5599 75.1119 47.7735C74.8984 47.9818 74.6094 48.086 74.2449 48.086C73.8804 48.086 73.5914 47.9818 73.3779 47.7735C73.1644 47.5599 73.0574 47.2995 73.0574 46.9922Z" fill="#0F172A"/>
<path d="M72.0765 39.5469V41.0313H67.233V39.5469H72.0765ZM68.5295 37.4688H70.6V45.5625C70.6 45.8125 70.634 46.0052 70.7015 46.1406C70.7695 46.2761 70.871 46.3672 71.006 46.4141C71.1415 46.461 71.303 46.4844 71.4905 46.4844C71.626 46.4844 71.751 46.4766 71.8655 46.461C71.98 46.4453 72.0765 46.4297 72.1545 46.4141L72.1625 47.961C71.9905 48.0183 71.7955 48.0651 71.5765 48.1016C71.363 48.138 71.121 48.1563 70.85 48.1563C70.3865 48.1563 69.98 48.0781 69.631 47.9219C69.2825 47.7604 69.0115 47.5026 68.8185 47.1485C68.626 46.7891 68.5295 46.3151 68.5295 45.7266V37.4688Z" fill="#0F172A"/>
<path d="M64.9706 45.6876C64.9706 45.5105 64.9241 45.3516 64.8301 45.211C64.7366 45.0704 64.5591 44.9428 64.2991 44.8282C64.0436 44.7084 63.6686 44.5964 63.1741 44.4923C62.7366 44.3985 62.3326 44.2813 61.9631 44.1407C61.5931 44.0001 61.2756 43.8308 61.0096 43.6329C60.7441 43.4298 60.5356 43.1928 60.3846 42.922C60.2391 42.6459 60.1661 42.3282 60.1661 41.9688C60.1661 41.6199 60.2416 41.2917 60.3926 40.9845C60.5436 40.672 60.7626 40.3985 61.0491 40.1641C61.3351 39.9246 61.6841 39.7371 62.0956 39.6016C62.5071 39.461 62.9706 39.3907 63.4866 39.3907C64.2051 39.3907 64.8221 39.5079 65.3381 39.7423C65.8586 39.9766 66.2571 40.2996 66.5331 40.711C66.8091 41.1173 66.9471 41.5756 66.9471 42.086H64.8846C64.8846 41.8621 64.8326 41.6589 64.7286 41.4766C64.6296 41.2943 64.4761 41.1485 64.2676 41.0391C64.0591 40.9246 63.7961 40.8673 63.4786 40.8673C63.1921 40.8673 62.9501 40.9141 62.7521 41.0079C62.5591 41.1016 62.4136 41.224 62.3146 41.3751C62.2156 41.5261 62.1661 41.6928 62.1661 41.8751C62.1661 42.0105 62.1921 42.1329 62.2441 42.2423C62.3016 42.3464 62.3926 42.4428 62.5176 42.5313C62.6426 42.6199 62.8121 42.7006 63.0256 42.7735C63.2441 42.8464 63.5126 42.9167 63.8301 42.9845C64.4601 43.1095 65.0096 43.2761 65.4786 43.4845C65.9526 43.6876 66.3221 43.9584 66.5881 44.297C66.8536 44.6355 66.9866 45.0678 66.9866 45.5938C66.9866 45.9688 66.9056 46.3126 66.7441 46.6251C66.5826 46.9324 66.3481 47.2006 66.0411 47.4298C65.7336 47.6589 65.3666 47.8386 64.9396 47.9688C64.5126 48.0938 64.0306 48.1563 63.4941 48.1563C62.7181 48.1563 62.0621 48.0183 61.5256 47.7423C60.9891 47.461 60.5826 47.1068 60.3066 46.6798C60.0306 46.2475 59.8926 45.7996 59.8926 45.336H61.8691C61.8846 45.6641 61.9731 45.9272 62.1346 46.1251C62.2961 46.323 62.4996 46.4662 62.7441 46.5548C62.9941 46.6381 63.2571 46.6798 63.5331 46.6798C63.8456 46.6798 64.1086 46.6381 64.3221 46.5548C64.5356 46.4662 64.6971 46.349 64.8066 46.2032C64.9161 46.0522 64.9706 45.8803 64.9706 45.6876Z" fill="#0F172A"/>
<path d="M58.8334 39.5469V48.0001H56.7629V39.5469H58.8334ZM56.6224 37.336C56.6224 37.0287 56.7264 36.7735 56.9349 36.5703C57.1484 36.3672 57.4349 36.2656 57.7944 36.2656C58.1534 36.2656 58.4374 36.3672 58.6459 36.5703C58.8594 36.7735 58.9659 37.0287 58.9659 37.336C58.9659 37.638 58.8594 37.8906 58.6459 38.0938C58.4374 38.2969 58.1534 38.3985 57.7944 38.3985C57.4349 38.3985 57.1484 38.2969 56.9349 38.0938C56.7264 37.8906 56.6224 37.638 56.6224 37.336Z" fill="#0F172A"/>
<path d="M53.5399 45.6876C53.5399 45.5105 53.4929 45.3516 53.3994 45.211C53.3054 45.0704 53.1284 44.9428 52.8679 44.8282C52.6129 44.7084 52.2379 44.5964 51.7429 44.4923C51.3054 44.3985 50.9019 44.2813 50.5319 44.1407C50.1624 44.0001 49.8446 43.8308 49.5789 43.6329C49.3133 43.4298 49.105 43.1928 48.9539 42.922C48.8081 42.6459 48.7352 42.3282 48.7352 41.9688C48.7352 41.6199 48.8107 41.2917 48.9618 40.9845C49.1128 40.672 49.3315 40.3985 49.618 40.1641C49.9045 39.9246 50.2534 39.7371 50.6649 39.6016C51.0764 39.461 51.5399 39.3907 52.0554 39.3907C52.7744 39.3907 53.3914 39.5079 53.9069 39.7423C54.4279 39.9766 54.8264 40.2996 55.1024 40.711C55.3784 41.1173 55.5164 41.5756 55.5164 42.086H53.4539C53.4539 41.8621 53.4019 41.6589 53.2979 41.4766C53.1989 41.2943 53.0449 41.1485 52.8369 41.0391C52.6284 40.9246 52.3654 40.8673 52.0479 40.8673C51.7614 40.8673 51.5189 40.9141 51.3214 41.0079C51.1284 41.1016 50.9824 41.224 50.8839 41.3751C50.7849 41.5261 50.7354 41.6928 50.7354 41.8751C50.7354 42.0105 50.7614 42.1329 50.8134 42.2423C50.8704 42.3464 50.9619 42.4428 51.0869 42.5313C51.2119 42.6199 51.3809 42.7006 51.5944 42.7735C51.8134 42.8464 52.0814 42.9167 52.3994 42.9845C53.0294 43.1095 53.5789 43.2761 54.0479 43.4845C54.5219 43.6876 54.8914 43.9584 55.1569 44.297C55.4229 44.6355 55.5554 45.0678 55.5554 45.5938C55.5554 45.9688 55.4749 46.3126 55.3134 46.6251C55.1519 46.9324 54.9174 47.2006 54.6104 47.4298C54.3029 47.6589 53.9359 47.8386 53.5089 47.9688C53.0814 48.0938 52.5999 48.1563 52.0634 48.1563C51.2874 48.1563 50.6309 48.0183 50.0944 47.7423C49.5581 47.461 49.1519 47.1068 48.8758 46.6798C48.5998 46.2475 48.4618 45.7996 48.4618 45.336H50.4384C50.4539 45.6641 50.5424 45.9272 50.7039 46.1251C50.8654 46.323 51.0684 46.4662 51.3134 46.5548C51.5634 46.6381 51.8264 46.6798 52.1024 46.6798C52.4149 46.6798 52.6779 46.6381 52.8914 46.5548C53.1049 46.4662 53.2664 46.349 53.3759 46.2032C53.4854 46.0522 53.5399 45.8803 53.5399 45.6876Z" fill="#0F172A"/>
<path d="M45.7857 45.6876C45.7857 45.5105 45.7388 45.3516 45.645 45.211C45.5513 45.0704 45.3742 44.9428 45.1138 44.8282C44.8586 44.7084 44.4836 44.5964 43.9888 44.4923C43.5513 44.3985 43.1476 44.2813 42.7778 44.1407C42.408 44.0001 42.0903 43.8308 41.8247 43.6329C41.5591 43.4298 41.3508 43.1928 41.1997 42.922C41.0539 42.6459 40.981 42.3282 40.981 41.9688C40.981 41.6199 41.0565 41.2917 41.2075 40.9845C41.3586 40.672 41.5773 40.3985 41.8638 40.1641C42.1502 39.9246 42.4992 39.7371 42.9107 39.6016C43.3221 39.461 43.7857 39.3907 44.3013 39.3907C45.02 39.3907 45.6372 39.5079 46.1528 39.7423C46.6737 39.9766 47.0721 40.2996 47.3482 40.711C47.6242 41.1173 47.7622 41.5756 47.7622 42.086H45.6997C45.6997 41.8621 45.6476 41.6589 45.5435 41.4766C45.4445 41.2943 45.2909 41.1485 45.0825 41.0391C44.8742 40.9246 44.6112 40.8673 44.2935 40.8673C44.007 40.8673 43.7648 40.9141 43.5669 41.0079C43.3742 41.1016 43.2284 41.224 43.1294 41.3751C43.0304 41.5261 42.981 41.6928 42.981 41.8751C42.981 42.0105 43.007 42.1329 43.0591 42.2423C43.1164 42.3464 43.2075 42.4428 43.3325 42.5313C43.4575 42.6199 43.6268 42.7006 43.8403 42.7735C44.0591 42.8464 44.3273 42.9167 44.645 42.9845C45.2752 43.1095 45.8247 43.2761 46.2935 43.4845C46.7674 43.6876 47.1372 43.9584 47.4028 44.297C47.6685 44.6355 47.8013 45.0678 47.8013 45.5938C47.8013 45.9688 47.7205 46.3126 47.5591 46.6251C47.3976 46.9324 47.1633 47.2006 46.856 47.4298C46.5487 47.6589 46.1815 47.8386 45.7544 47.9688C45.3273 48.0938 44.8455 48.1563 44.3091 48.1563C43.533 48.1563 42.8768 48.0183 42.3403 47.7423C41.8039 47.461 41.3976 47.1068 41.1216 46.6798C40.8455 46.2475 40.7075 45.7996 40.7075 45.336H42.6841C42.6997 45.6641 42.7883 45.9272 42.9497 46.1251C43.1112 46.323 43.3143 46.4662 43.5591 46.5548C43.8091 46.6381 44.0721 46.6798 44.3482 46.6798C44.6607 46.6798 44.9237 46.6381 45.1372 46.5548C45.3508 46.4662 45.5122 46.349 45.6216 46.2032C45.731 46.0522 45.7857 45.8803 45.7857 45.6876Z" fill="#0F172A"/>
<path d="M35.6094 38.3516L32.3672 48.0001H30.0938L34.3437 36.625H35.7969L35.6094 38.3516ZM38.3203 48.0001L35.0625 38.3516L34.8672 36.625H36.3281L40.6015 48.0001H38.3203ZM38.1719 43.7735V45.4688H32.0703V43.7735H38.1719Z" fill="#0F172A"/>
</svg>
