<svg width="24" height="24" viewBox="0 0 24 24" fill="none" xmlns="http://www.w3.org/2000/svg">
<path d="M8.91837 3.73079C6.04319 3.73079 3.7124 5.92632 3.7124 8.63464V15.3654C3.7124 18.0737 6.04319 20.2693 8.91837 20.2693H12.4911C12.9985 20.2693 13.4098 20.6567 13.4098 21.1346C13.4098 21.6126 12.9985 22 12.4911 22H8.91837C5.02842 22 1.875 19.0296 1.875 15.3654V8.63464C1.875 4.97044 5.02842 2.00002 8.91837 2.00002H11.9807C12.4881 2.00002 12.8994 2.38747 12.8994 2.86541C12.8994 3.34335 12.4881 3.73079 11.9807 3.73079H8.91837Z" fill="#D93E3E"/>
<path d="M16.435 7.06118C16.0762 7.39913 16.0762 7.94707 16.435 8.28502L18.9498 10.6539H6.36642C5.85903 10.6539 5.44772 11.0413 5.44772 11.5193C5.44772 11.9972 5.85903 12.3846 6.36642 12.3846H18.9498L16.435 14.7535C16.0762 15.0914 16.0762 15.6394 16.435 15.9773C16.7938 16.3153 17.3754 16.3153 17.7342 15.9773L21.4564 12.4711C22.0145 11.9454 22.0145 11.0931 21.4564 10.5674L17.7342 7.06118C17.3754 6.72323 16.7938 6.72323 16.435 7.06118Z" fill="#D93E3E"/>
</svg>
