<svg width="20" height="20" viewBox="0 0 20 20" fill="none" xmlns="http://www.w3.org/2000/svg">
<path d="M10.5494 12.3456C11.0987 12.0684 11.4753 11.499 11.4753 10.8418C11.4753 9.912 10.7216 9.15827 9.79183 9.15827C8.86206 9.15827 8.10833 9.912 8.10833 10.8418C8.10833 11.499 8.485 12.0684 9.03425 12.3456V13.367C9.03425 13.7854 9.37343 14.1246 9.79183 14.1246C10.2102 14.1246 10.5494 13.7854 10.5494 13.367V12.3456Z" fill="#94A3B8"/>
<path fill-rule="evenodd" clip-rule="evenodd" d="M4.8255 6.13858V4.94952C4.8255 3.13646 6.29527 1.66669 8.10833 1.66669H11.4753C13.2884 1.66669 14.7582 3.13646 14.7582 4.94952V6.13858C16.7163 6.80426 18.1252 8.65849 18.1252 10.8418V13.367C18.1252 16.1099 15.9017 18.3334 13.1588 18.3334H6.42483C3.682 18.3334 1.4585 16.1099 1.4585 13.367V10.8418C1.4585 8.65849 2.86733 6.80426 4.8255 6.13858ZM6.34065 4.94952C6.34065 3.97326 7.13207 3.18184 8.10833 3.18184H11.4753C12.4516 3.18184 13.243 3.97326 13.243 4.94952V5.87614C13.215 5.87568 13.1869 5.87545 13.1588 5.87545H6.42483C6.39671 5.87545 6.36865 5.87568 6.34065 5.87614V4.94952ZM2.97365 10.8418C2.97365 8.93574 4.51879 7.3906 6.42483 7.3906H13.1588C15.0649 7.3906 16.61 8.93574 16.61 10.8418V13.367C16.61 15.2731 15.0649 16.8182 13.1588 16.8182H6.42483C4.51879 16.8182 2.97365 15.2731 2.97365 13.367V10.8418Z" fill="#94A3B8"/>
</svg>
