<svg width="20" height="20" viewBox="0 0 20 20" fill="none" xmlns="http://www.w3.org/2000/svg">
<path fill-rule="evenodd" clip-rule="evenodd" d="M6.94198 2.5C4.02855 2.5 1.66675 4.62562 1.66675 7.24771V12.7523C1.66675 15.3744 4.02855 17.5 6.94198 17.5H13.0582C15.9716 17.5 18.3334 15.3744 18.3334 12.7523V7.24771C18.3334 4.62562 15.9716 2.5 13.0582 2.5H6.94198ZM4.03901 4.90496C4.75285 4.18896 5.78897 3.73853 6.94198 3.73853H13.0582C14.2112 3.73853 15.2473 4.18896 15.9612 4.90496L10.0001 7.58744L4.03901 4.90496ZM3.31256 5.96278C3.1385 6.3607 3.04289 6.79416 3.04289 7.24771V12.7523C3.04289 14.6904 4.78857 16.2615 6.94198 16.2615H13.0582C15.2116 16.2615 16.9573 14.6904 16.9573 12.7523V7.24771C16.9573 6.79416 16.8617 6.3607 16.6876 5.96278L10.3078 8.83369C10.1141 8.92086 9.88608 8.92086 9.69236 8.83369L3.31256 5.96278Z" fill="#94A3B8"/>
</svg>
