<svg width="29" height="28" viewBox="0 0 29 28" fill="none" xmlns="http://www.w3.org/2000/svg">
<path fill-rule="evenodd" clip-rule="evenodd" d="M15.8792 10.6974C15.7783 10.8389 15.5731 10.8036 15.5175 10.6353L14.6965 8.14999C14.6304 7.95001 14.3696 7.95001 14.3035 8.14999L13.4825 10.6353C13.4269 10.8036 13.2217 10.8389 13.1208 10.6974L11.6315 8.60877C11.5117 8.44071 11.2636 8.52811 11.2577 8.74043L11.1853 11.3792C11.1804 11.5579 10.9953 11.6601 10.8591 11.5594L8.84727 10.0719C8.6854 9.95217 8.47435 10.1184 8.52933 10.3223L9.21265 12.8561C9.25892 13.0277 9.11202 13.187 8.95375 13.1368L6.61638 12.396C6.42832 12.3364 6.27498 12.5652 6.38538 12.7407L7.75755 14.9217C7.85046 15.0693 7.75615 15.27 7.59132 15.2753L5.1572 15.3538C4.96134 15.3601 4.88073 15.6291 5.03575 15.759L6.96244 17.3735C7.09291 17.4829 7.06041 17.7053 6.90516 17.7656L4.63835 18.6456C4.45106 18.7183 4.45488 19.0069 4.64401 19.0738L7.23248 19.9889C7.25338 19.9962 7.27522 20 7.2972 20H21.7028C21.7248 20 21.7466 19.9962 21.7675 19.9889L24.356 19.0738C24.5451 19.0069 24.5489 18.7183 24.3616 18.6456L22.0948 17.7656C21.9396 17.7053 21.9071 17.4829 22.0376 17.3735L23.9642 15.759C24.1193 15.6291 24.0387 15.3601 23.8428 15.3538L21.4087 15.2753C21.2439 15.27 21.1495 15.0693 21.2425 14.9217L22.6146 12.7407C22.725 12.5652 22.5717 12.3364 22.3836 12.396L20.0463 13.1368C19.888 13.187 19.7411 13.0277 19.7873 12.8561L20.4707 10.3223C20.5257 10.1184 20.3146 9.95217 20.1527 10.0719L18.1409 11.5594C18.0047 11.6601 17.8196 11.5579 17.8147 11.3792L17.7423 8.74043C17.7364 8.52811 17.4883 8.44071 17.3685 8.60877L15.8792 10.6974Z" fill="#EEC239"/>
<path d="M21.8053 20C21.8053 17.8996 21.0356 14.754 19.6656 13.2688C18.2956 11.7836 16.4375 10.9492 14.5 10.9492C12.5625 10.9492 10.7044 11.7836 9.33437 13.2688C7.96436 14.7539 7.1947 17.8996 7.1947 20H21.8053Z" fill="#F1CC5A"/>
<path d="M9.80373 15.4746L10.0856 16.3004L10.8473 16.606L10.0856 16.9115L9.80373 17.7373L9.52186 16.9115L8.76011 16.606L9.52186 16.3004L9.80373 15.4746Z" fill="#D5A307"/>
</svg>
