<svg width="24" height="24" viewBox="0 0 24 24" fill="none" xmlns="http://www.w3.org/2000/svg">
<path d="M2.38761 6.19707C2.13742 6.76903 2 7.39206 2 8.04397V15.9561C2 18.7418 4.50917 21 7.6044 21H16.3956C19.4908 21 22 18.7418 22 15.9561V8.04397C22 7.39206 21.8626 6.76903 21.6124 6.19707L12.4423 10.3236C12.1639 10.4489 11.8361 10.4489 11.5577 10.3236L2.38761 6.19707Z" fill="#94A3B8"/>
<path d="M3.43177 4.6766L12 8.5323L20.5682 4.6766C19.5422 3.64744 18.0529 3.00002 16.3956 3.00002H7.6044C5.9471 3.00002 4.45783 3.64744 3.43177 4.6766Z" fill="#94A3B8"/>
</svg>
