<svg width="29" height="28" viewBox="0 0 29 28" fill="none" xmlns="http://www.w3.org/2000/svg">
<path d="M2.9585 14.5198L5.16452 24.4469C5.23471 24.7628 5.54854 24.9611 5.86395 24.889L25.1727 20.4756C25.4736 20.4068 25.6689 20.1155 25.6181 19.811L23.9585 9.85315L2.9585 14.5198Z" fill="#A1D2ED"/>
<path d="M2.9585 4.55102V14.5198L21.0418 8.10315L21.5547 2.97477C21.5912 2.6095 21.2853 2.30168 20.9198 2.33594L3.48738 3.97023C3.18762 3.99833 2.9585 4.24995 2.9585 4.55102Z" fill="#0F3144"/>
<path d="M5.19413 5.57726L2.9585 14.5198L23.9585 11.0198L25.018 3.60354C25.0721 3.2245 24.7526 2.89697 24.3723 2.9417L5.69189 5.1394C5.4511 5.16773 5.25293 5.34205 5.19413 5.57726Z" fill="#15425B"/>
<path fill-rule="evenodd" clip-rule="evenodd" d="M26.2918 13.3531C26.2918 15.9305 24.2025 18.0198 21.6252 18.0198C19.0478 18.0198 16.9585 15.9305 16.9585 13.3531C16.9585 10.7758 19.0478 8.68648 21.6252 8.68648C24.2025 8.68648 26.2918 10.7758 26.2918 13.3531ZM23.9846 11.3896C24.167 11.5329 24.1987 11.7969 24.0554 11.9793L21.4887 15.246C21.4186 15.3352 21.3154 15.3923 21.2025 15.4042C21.0897 15.4161 20.9768 15.3818 20.8896 15.3091L19.4896 14.1425C19.3114 13.994 19.2873 13.7291 19.4358 13.5509C19.5843 13.3727 19.8492 13.3487 20.0274 13.4972L21.0953 14.3871L23.3949 11.4603C23.5382 11.2779 23.8023 11.2463 23.9846 11.3896Z" fill="#22C55E"/>
<path d="M24.0554 11.9793C24.1987 11.7969 24.167 11.5329 23.9846 11.3896C23.8023 11.2463 23.5382 11.2779 23.3949 11.4603L21.0953 14.3871L20.0274 13.4972C19.8492 13.3487 19.5843 13.3727 19.4358 13.5509C19.2873 13.7291 19.3114 13.994 19.4896 14.1425L20.8896 15.3091C20.9768 15.3818 21.0897 15.4161 21.2025 15.4042C21.3154 15.3923 21.4186 15.3352 21.4887 15.246L24.0554 11.9793Z" fill="white"/>
<path d="M5.78118 17.9658L6.03229 18.3927C6.09088 18.4923 6.20664 18.5432 6.31967 18.5191L11.1929 17.4806C11.306 17.4565 11.3909 17.3628 11.4038 17.2479L11.459 16.7558C11.4795 16.5736 11.3155 16.425 11.1363 16.4632L5.95664 17.567C5.77741 17.6052 5.68827 17.8078 5.78118 17.9658Z" fill="#247099"/>
<path d="M7.96151 15.2354L5.92077 17.5747L11.1726 16.4555L8.35539 15.1514C8.22003 15.0888 8.05956 15.1229 7.96151 15.2354Z" fill="#15425B"/>
<path d="M7.27958 18.3146L6.45898 18.4895L7.08854 21.4436L7.90913 21.2688L7.27958 18.3146Z" fill="#247099"/>
<path d="M9.24887 17.8948L8.26416 18.1047L8.89371 21.0588L9.87843 20.849L9.24887 17.8948Z" fill="#247099"/>
<path d="M11.054 17.5101L10.2334 17.685L10.863 20.6391L11.6835 20.4643L11.054 17.5101Z" fill="#247099"/>
<path d="M6.80901 21.1781L7.06012 21.605C7.11871 21.7046 7.23447 21.7555 7.3475 21.7314L11.5643 20.8328C11.6773 20.8087 11.7623 20.715 11.7752 20.6002L11.8304 20.108C11.8508 19.9259 11.6869 19.7772 11.5076 19.8154L6.98447 20.7794C6.80524 20.8176 6.7161 21.0201 6.80901 21.1781Z" fill="#15425B"/>
<path d="M8.73522 16.2887C8.77385 16.47 8.65821 16.6482 8.47693 16.6869C8.29565 16.7255 8.11737 16.6099 8.07874 16.4286C8.04011 16.2473 8.15575 16.069 8.33703 16.0304C8.51831 15.9918 8.69658 16.1074 8.73522 16.2887Z" fill="#A1D2ED"/>
<path d="M6.91666 6.72916L6.73016 7.28865C6.59992 7.67939 6.90468 8.07839 7.31592 8.05555L16.5629 7.54182C16.8018 7.52855 17.0083 7.3708 17.084 7.14385L17.2705 6.58437C17.4007 6.19363 17.096 5.79462 16.6847 5.81747L7.4377 6.33119C7.19885 6.34446 6.99231 6.50221 6.91666 6.72916Z" fill="#329ED8"/>
<path d="M6.91666 9.64582L6.73016 10.2053C6.59992 10.5961 6.90468 10.9951 7.31592 10.9722L16.5629 10.4585C16.8018 10.4452 17.0083 10.2875 17.084 10.0605L17.2705 9.50103C17.4007 9.11029 17.096 8.71128 16.6847 8.73413L7.4377 9.24785C7.19885 9.26112 6.99231 9.41888 6.91666 9.64582Z" fill="#329ED8"/>
</svg>
