<svg width="367" height="367" viewBox="0 0 367 367" fill="none" xmlns="http://www.w3.org/2000/svg">
<path fill-rule="evenodd" clip-rule="evenodd" d="M175.854 45.875V30.5833H191.146V45.875H175.854Z" fill="#94A3B8"/>
<path fill-rule="evenodd" clip-rule="evenodd" d="M175.854 336.417V321.125H191.146V336.417H175.854Z" fill="#94A3B8"/>
<path fill-rule="evenodd" clip-rule="evenodd" d="M198.633 46.4955L201.151 31.4127L216.234 33.9316L213.715 49.0143L198.633 46.4955Z" fill="#94A3B8"/>
<path fill-rule="evenodd" clip-rule="evenodd" d="M150.774 333.068L153.293 317.986L168.376 320.504L165.857 335.587L150.774 333.068Z" fill="#94A3B8"/>
<path fill-rule="evenodd" clip-rule="evenodd" d="M220.983 50.859L225.952 36.3971L240.414 41.366L235.445 55.8279L220.983 50.859Z" fill="#94A3B8"/>
<path fill-rule="evenodd" clip-rule="evenodd" d="M126.574 325.634L131.543 311.172L146.005 316.141L141.036 330.603L126.574 325.634Z" fill="#94A3B8"/>
<path fill-rule="evenodd" clip-rule="evenodd" d="M242.323 58.846L249.606 45.4002L263.052 52.6834L255.769 66.1292L242.323 58.846Z" fill="#94A3B8"/>
<path fill-rule="evenodd" clip-rule="evenodd" d="M103.942 314.317L111.226 300.871L124.671 308.154L117.388 321.6L103.942 314.317Z" fill="#94A3B8"/>
<path fill-rule="evenodd" clip-rule="evenodd" d="M262.06 70.2386L271.459 58.1761L283.521 67.5746L274.123 79.6371L262.06 70.2386Z" fill="#94A3B8"/>
<path fill-rule="evenodd" clip-rule="evenodd" d="M83.4892 299.426L92.8877 287.363L104.95 296.762L95.5517 308.824L83.4892 299.426Z" fill="#94A3B8"/>
<path fill-rule="evenodd" clip-rule="evenodd" d="M279.636 84.7256L290.893 74.376L301.242 85.6331L289.985 95.9826L279.636 84.7256Z" fill="#94A3B8"/>
<path fill-rule="evenodd" clip-rule="evenodd" d="M65.7517 281.367L77.0088 271.018L87.3584 282.275L76.1013 292.625L65.7517 281.367Z" fill="#94A3B8"/>
<path fill-rule="evenodd" clip-rule="evenodd" d="M294.598 101.911L307.406 93.5569L315.76 106.365L302.952 114.719L294.598 101.911Z" fill="#94A3B8"/>
<path fill-rule="evenodd" clip-rule="evenodd" d="M51.2447 260.636L64.0527 252.282L72.4067 265.09L59.5986 273.444L51.2447 260.636Z" fill="#94A3B8"/>
<path fill-rule="evenodd" clip-rule="evenodd" d="M306.515 121.325L320.524 115.195L326.654 129.204L312.645 135.335L306.515 121.325Z" fill="#94A3B8"/>
<path fill-rule="evenodd" clip-rule="evenodd" d="M40.3404 237.797L54.3496 231.666L60.4797 245.676L46.4705 251.806L40.3404 237.797Z" fill="#94A3B8"/>
<path fill-rule="evenodd" clip-rule="evenodd" d="M315.076 142.438L329.903 138.7L333.642 153.527L318.814 157.266L315.076 142.438Z" fill="#94A3B8"/>
<path fill-rule="evenodd" clip-rule="evenodd" d="M33.3521 213.474L48.1797 209.735L51.9184 224.563L37.0908 228.302L33.3521 213.474Z" fill="#94A3B8"/>
<path fill-rule="evenodd" clip-rule="evenodd" d="M320.045 164.673L335.286 163.428L336.531 178.669L321.29 179.914L320.045 164.673Z" fill="#94A3B8"/>
<path fill-rule="evenodd" clip-rule="evenodd" d="M30.4681 188.333L45.709 187.088L46.9542 202.329L31.7133 203.574L30.4681 188.333Z" fill="#94A3B8"/>
<path fill-rule="evenodd" clip-rule="evenodd" d="M321.283 187.422L336.521 188.705L335.238 203.942L320 202.66L321.283 187.422Z" fill="#94A3B8"/>
<path fill-rule="evenodd" clip-rule="evenodd" d="M31.7641 163.06L47.002 164.342L45.7197 179.58L30.4819 178.297L31.7641 163.06Z" fill="#94A3B8"/>
<path fill-rule="evenodd" clip-rule="evenodd" d="M318.752 210.065L333.57 213.839L329.796 228.658L314.977 224.883L318.752 210.065Z" fill="#94A3B8"/>
<path fill-rule="evenodd" clip-rule="evenodd" d="M37.2011 138.345L52.0195 142.12L48.2448 156.938L33.4264 153.163L37.2011 138.345Z" fill="#94A3B8"/>
<path fill-rule="evenodd" clip-rule="evenodd" d="M312.527 231.981L326.521 238.145L320.357 252.139L306.363 245.975L312.527 231.981Z" fill="#94A3B8"/>
<path fill-rule="evenodd" clip-rule="evenodd" d="M46.6356 114.864L60.6299 121.028L54.4658 135.022L40.4715 128.858L46.6356 114.864Z" fill="#94A3B8"/>
<path fill-rule="evenodd" clip-rule="evenodd" d="M302.779 252.573L315.566 260.958L307.181 273.746L294.394 265.361L302.779 252.573Z" fill="#94A3B8"/>
<path fill-rule="evenodd" clip-rule="evenodd" d="M59.8109 93.2579L72.5986 101.643L64.2136 114.431L51.4259 106.046L59.8109 93.2579Z" fill="#94A3B8"/>
<path fill-rule="evenodd" clip-rule="evenodd" d="M289.77 271.278L301.002 281.655L290.625 292.887L279.393 282.51L289.77 271.278Z" fill="#94A3B8"/>
<path fill-rule="evenodd" clip-rule="evenodd" d="M76.3638 74.1173L87.5957 84.4941L77.2188 95.726L65.9869 85.3492L76.3638 74.1173Z" fill="#94A3B8"/>
<path fill-rule="evenodd" clip-rule="evenodd" d="M273.865 287.585L283.234 299.67L271.149 309.04L261.78 296.954L273.865 287.585Z" fill="#94A3B8"/>
<path fill-rule="evenodd" clip-rule="evenodd" d="M95.8505 57.9651L105.22 70.0504L93.1345 79.4195L83.7653 67.3343L95.8505 57.9651Z" fill="#94A3B8"/>
<path fill-rule="evenodd" clip-rule="evenodd" d="M255.482 301.048L262.732 314.512L249.269 321.762L242.018 308.299L255.482 301.048Z" fill="#94A3B8"/>
<path fill-rule="evenodd" clip-rule="evenodd" d="M117.722 45.2423L124.973 58.7058L111.509 65.9563L104.259 52.4928L117.722 45.2423Z" fill="#94A3B8"/>
<path fill-rule="evenodd" clip-rule="evenodd" d="M235.142 311.301L240.076 325.775L225.602 330.708L220.669 316.234L235.142 311.301Z" fill="#94A3B8"/>
<path fill-rule="evenodd" clip-rule="evenodd" d="M141.401 36.2969L146.335 50.7708L131.861 55.7045L126.927 41.2307L141.401 36.2969Z" fill="#94A3B8"/>
<path fill-rule="evenodd" clip-rule="evenodd" d="M213.381 318.061L215.863 333.15L200.774 335.632L198.292 320.544L213.381 318.061Z" fill="#94A3B8"/>
<path fill-rule="evenodd" clip-rule="evenodd" d="M166.219 31.3729L168.701 46.4618L153.612 48.944L151.13 33.8551L166.219 31.3729Z" fill="#94A3B8"/>
<path fill-rule="evenodd" clip-rule="evenodd" d="M184 224.919C207.151 224.919 225.919 206.151 225.919 183C225.919 159.849 207.151 141.081 184 141.081C160.849 141.081 142.081 159.849 142.081 183C142.081 206.151 160.849 224.919 184 224.919ZM184 230C209.957 230 231 208.957 231 183C231 157.043 209.957 136 184 136C158.043 136 137 157.043 137 183C137 208.957 158.043 230 184 230Z" fill="#0F172A"/>
<path fill-rule="evenodd" clip-rule="evenodd" d="M185.27 172.838C186.673 172.838 187.811 173.975 187.811 175.378V190.647C187.811 192.467 187.16 194.226 185.976 195.607L183.388 198.626C182.475 199.692 180.871 199.815 179.806 198.902C178.741 197.989 178.617 196.385 179.531 195.32L182.118 192.301C182.513 191.84 182.73 191.254 182.73 190.647V175.378C182.73 173.975 183.867 172.838 185.27 172.838Z" fill="#0F172A"/>
<path fill-rule="evenodd" clip-rule="evenodd" d="M201.403 207.068C202.142 208.261 201.773 209.827 200.58 210.566C194.192 214.52 188.809 216.78 183.248 216.794C177.671 216.807 172.36 214.562 166.112 210.542C164.932 209.783 164.591 208.211 165.35 207.031C166.109 205.851 167.681 205.51 168.861 206.269C174.804 210.093 179.112 211.723 183.236 211.713C187.376 211.702 191.776 210.04 197.906 206.245C199.099 205.507 200.665 205.875 201.403 207.068Z" fill="#0F172A"/>
<path fill-rule="evenodd" clip-rule="evenodd" d="M200.514 167.757C201.917 167.757 203.054 168.894 203.054 170.297V176.014C203.054 177.417 201.917 178.554 200.514 178.554C199.11 178.554 197.973 177.417 197.973 176.014V170.297C197.973 168.894 199.11 167.757 200.514 167.757Z" fill="#0F172A"/>
<path fill-rule="evenodd" clip-rule="evenodd" d="M166.216 167.757C167.619 167.757 168.757 168.894 168.757 170.297V176.014C168.757 177.417 167.619 178.554 166.216 178.554C164.813 178.554 163.676 177.417 163.676 176.014V170.297C163.676 168.894 164.813 167.757 166.216 167.757Z" fill="#0F172A"/>
</svg>
