<svg width="307" height="307" viewBox="0 0 307 307" fill="none" xmlns="http://www.w3.org/2000/svg">
<path fill-rule="evenodd" clip-rule="evenodd" d="M145.854 15.875V0.583344H161.146V15.875H145.854Z" fill="#94A3B8"/>
<path fill-rule="evenodd" clip-rule="evenodd" d="M145.854 306.417V291.125H161.146V306.417H145.854Z" fill="#94A3B8"/>
<path fill-rule="evenodd" clip-rule="evenodd" d="M168.633 16.4955L171.151 1.4127L186.234 3.93156L183.715 19.0143L168.633 16.4955Z" fill="#94A3B8"/>
<path fill-rule="evenodd" clip-rule="evenodd" d="M120.774 303.068L123.293 287.986L138.376 290.504L135.857 305.587L120.774 303.068Z" fill="#94A3B8"/>
<path fill-rule="evenodd" clip-rule="evenodd" d="M190.983 20.859L195.952 6.39713L210.414 11.366L205.445 25.8279L190.983 20.859Z" fill="#94A3B8"/>
<path fill-rule="evenodd" clip-rule="evenodd" d="M96.5741 295.634L101.543 281.172L116.005 286.141L111.036 300.603L96.5741 295.634Z" fill="#94A3B8"/>
<path fill-rule="evenodd" clip-rule="evenodd" d="M212.323 28.846L219.606 15.4002L233.052 22.6834L225.769 36.1292L212.323 28.846Z" fill="#94A3B8"/>
<path fill-rule="evenodd" clip-rule="evenodd" d="M73.9424 284.317L81.2256 270.871L94.6714 278.154L87.3882 291.6L73.9424 284.317Z" fill="#94A3B8"/>
<path fill-rule="evenodd" clip-rule="evenodd" d="M232.06 40.2386L241.459 28.1761L253.521 37.5746L244.123 49.6371L232.06 40.2386Z" fill="#94A3B8"/>
<path fill-rule="evenodd" clip-rule="evenodd" d="M53.4892 269.426L62.8877 257.363L74.9502 266.762L65.5517 278.824L53.4892 269.426Z" fill="#94A3B8"/>
<path fill-rule="evenodd" clip-rule="evenodd" d="M249.636 54.7256L260.893 44.376L271.242 55.6331L259.985 65.9826L249.636 54.7256Z" fill="#94A3B8"/>
<path fill-rule="evenodd" clip-rule="evenodd" d="M35.7517 251.367L47.0088 241.018L57.3584 252.275L46.1013 262.625L35.7517 251.367Z" fill="#94A3B8"/>
<path fill-rule="evenodd" clip-rule="evenodd" d="M264.598 71.9109L277.406 63.5569L285.76 76.365L272.952 84.719L264.598 71.9109Z" fill="#94A3B8"/>
<path fill-rule="evenodd" clip-rule="evenodd" d="M21.2447 230.636L34.0527 222.282L42.4067 235.09L29.5986 243.444L21.2447 230.636Z" fill="#94A3B8"/>
<path fill-rule="evenodd" clip-rule="evenodd" d="M276.515 91.3253L290.524 85.1953L296.654 99.2045L282.645 105.335L276.515 91.3253Z" fill="#94A3B8"/>
<path fill-rule="evenodd" clip-rule="evenodd" d="M10.3404 207.797L24.3496 201.666L30.4797 215.676L16.4705 221.806L10.3404 207.797Z" fill="#94A3B8"/>
<path fill-rule="evenodd" clip-rule="evenodd" d="M285.076 112.438L299.903 108.7L303.642 123.527L288.814 127.266L285.076 112.438Z" fill="#94A3B8"/>
<path fill-rule="evenodd" clip-rule="evenodd" d="M3.35211 183.474L18.1797 179.735L21.9184 194.563L7.09083 198.302L3.35211 183.474Z" fill="#94A3B8"/>
<path fill-rule="evenodd" clip-rule="evenodd" d="M290.045 134.673L305.286 133.428L306.531 148.669L291.29 149.914L290.045 134.673Z" fill="#94A3B8"/>
<path fill-rule="evenodd" clip-rule="evenodd" d="M0.4681 158.333L15.709 157.088L16.9542 172.329L1.71335 173.574L0.4681 158.333Z" fill="#94A3B8"/>
<path fill-rule="evenodd" clip-rule="evenodd" d="M291.283 157.422L306.521 158.705L305.238 173.942L290 172.66L291.283 157.422Z" fill="#94A3B8"/>
<path fill-rule="evenodd" clip-rule="evenodd" d="M1.76414 133.06L17.002 134.342L15.7197 149.58L0.481885 148.297L1.76414 133.06Z" fill="#94A3B8"/>
<path fill-rule="evenodd" clip-rule="evenodd" d="M288.752 180.065L303.57 183.839L299.796 198.658L284.977 194.883L288.752 180.065Z" fill="#94A3B8"/>
<path fill-rule="evenodd" clip-rule="evenodd" d="M7.20107 108.345L22.0195 112.12L18.2448 126.938L3.42635 123.163L7.20107 108.345Z" fill="#94A3B8"/>
<path fill-rule="evenodd" clip-rule="evenodd" d="M282.527 201.981L296.521 208.145L290.357 222.139L276.363 215.975L282.527 201.981Z" fill="#94A3B8"/>
<path fill-rule="evenodd" clip-rule="evenodd" d="M16.6356 84.8638L30.6299 91.0278L24.4658 105.022L10.4715 98.858L16.6356 84.8638Z" fill="#94A3B8"/>
<path fill-rule="evenodd" clip-rule="evenodd" d="M272.779 222.573L285.566 230.958L277.181 243.746L264.394 235.361L272.779 222.573Z" fill="#94A3B8"/>
<path fill-rule="evenodd" clip-rule="evenodd" d="M29.8109 63.2579L42.5986 71.6429L34.2136 84.4306L21.4259 76.0456L29.8109 63.2579Z" fill="#94A3B8"/>
<path fill-rule="evenodd" clip-rule="evenodd" d="M259.77 241.278L271.002 251.655L260.625 262.887L249.393 252.51L259.77 241.278Z" fill="#94A3B8"/>
<path fill-rule="evenodd" clip-rule="evenodd" d="M46.3638 44.1173L57.5957 54.4941L47.2188 65.726L35.9869 55.3492L46.3638 44.1173Z" fill="#94A3B8"/>
<path fill-rule="evenodd" clip-rule="evenodd" d="M243.865 257.585L253.234 269.67L241.149 279.04L231.78 266.954L243.865 257.585Z" fill="#94A3B8"/>
<path fill-rule="evenodd" clip-rule="evenodd" d="M65.8505 27.9651L75.2197 40.0504L63.1345 49.4195L53.7653 37.3343L65.8505 27.9651Z" fill="#94A3B8"/>
<path fill-rule="evenodd" clip-rule="evenodd" d="M225.482 271.048L232.732 284.512L219.269 291.762L212.018 278.299L225.482 271.048Z" fill="#94A3B8"/>
<path fill-rule="evenodd" clip-rule="evenodd" d="M87.7221 15.2423L94.9727 28.7058L81.5092 35.9563L74.2587 22.4928L87.7221 15.2423Z" fill="#94A3B8"/>
<path fill-rule="evenodd" clip-rule="evenodd" d="M205.142 281.301L210.076 295.775L195.602 300.708L190.669 286.234L205.142 281.301Z" fill="#94A3B8"/>
<path fill-rule="evenodd" clip-rule="evenodd" d="M111.401 6.2969L116.335 20.7708L101.861 25.7045L96.9273 11.2307L111.401 6.2969Z" fill="#94A3B8"/>
<path fill-rule="evenodd" clip-rule="evenodd" d="M183.381 288.061L185.863 303.15L170.774 305.632L168.292 290.544L183.381 288.061Z" fill="#94A3B8"/>
<path fill-rule="evenodd" clip-rule="evenodd" d="M136.219 1.37293L138.701 16.4618L123.612 18.944L121.13 3.85515L136.219 1.37293Z" fill="#94A3B8"/>
</svg>
