<svg width="28" height="28" viewBox="0 0 28 28" fill="none" xmlns="http://www.w3.org/2000/svg">
<path d="M3.5059 12.7174L4.43924 3.38408C4.49888 2.78767 5.00074 2.3335 5.60011 2.3335H19.711L23.7417 6.36421C24.1164 6.73897 24.1915 7.31923 23.9245 7.77702L20.2943 14.0002H4.66678C3.97655 14.0002 3.43722 13.4042 3.5059 12.7174Z" fill="#0E5327"/>
<path d="M4.67253 12.7174L5.60586 3.38408C5.6655 2.78767 6.16736 2.3335 6.76674 2.3335H20.8776L24.9083 6.36421C25.2831 6.73897 25.3581 7.31923 25.0911 7.77702L21.4609 14.0002H5.83341C5.14318 14.0002 4.60385 13.4042 4.67253 12.7174Z" fill="#136C34"/>
<path d="M15.0443 14H11.5443L10.5059 24.3839C10.4372 25.0707 10.9766 25.6667 11.6668 25.6667H11.7545C12.3107 25.6667 12.7895 25.2741 12.8985 24.7288L15.0443 14Z" fill="#624B03"/>
<path d="M5.88647 7.03286C5.88647 7.56065 5.81542 8.17873 6.06155 8.67098C6.13604 8.81997 6.28448 8.96116 6.44343 9.00475C6.79668 9.10161 6.93896 8.78441 7.02906 8.5041C7.08662 8.32502 7.10644 8.12196 7.19492 7.9543C7.23811 7.87247 7.25131 8.03667 7.2543 8.05464C7.29762 8.31452 7.51259 8.58334 7.66486 8.78974L7.66735 8.79312C7.75298 8.90921 7.89898 9.10716 8.05187 9.13375C8.1304 9.14741 8.20934 9.18297 8.28632 9.15218C8.4194 9.09895 8.4957 8.97015 8.54023 8.83889C8.6636 8.47529 8.64491 8.03817 8.63135 7.65842C8.62388 7.44924 8.61395 7.24227 8.61395 7.03286M10.2172 8.34128C10.2545 8.181 10.2942 8.02109 10.3175 7.85804C10.3275 7.78808 10.3306 7.77382 10.2715 7.74132C10.1843 7.6934 10.0599 7.64157 9.9633 7.70037C9.80546 7.79644 9.80012 8.05825 9.79437 8.21638C9.79026 8.32916 9.75767 8.52432 9.81484 8.62796C9.92878 8.83447 10.0748 9.04812 10.2193 9.23406C10.3172 9.36015 10.4144 9.38077 10.5674 9.37228C10.9544 9.35078 11.1913 8.9468 11.3967 8.673M12.2077 8.24918C12.3043 7.99609 12.4427 7.71904 12.4472 7.44241C12.4493 7.31866 12.4561 7.2739 12.3141 7.25812C12.0071 7.224 11.8068 7.35612 11.7469 7.67379C11.7033 7.90512 11.7191 8.16909 11.7295 8.40378C11.7385 8.60561 11.9184 8.74683 12.0776 8.84505C12.2811 8.97053 12.5426 9.09487 12.7872 9.09487C13.0365 9.09487 13.1711 8.85725 13.2755 8.66383C13.3354 8.55285 13.3784 8.43096 13.4506 8.327C13.478 8.28749 13.5195 8.25736 13.5345 8.21233M14.4559 7.18026C14.4559 7.41753 14.4443 7.65814 14.46 7.89489C14.4754 8.12481 14.5268 8.352 14.5522 8.58085C14.5858 8.88371 14.6218 9.19677 14.6218 9.5023M15.9672 6.95923C15.7204 7.20882 15.5205 7.492 15.2955 7.75986C15.261 7.80092 15.1569 7.90515 15.2423 7.94415C15.6075 8.11087 15.9169 8.40095 16.1627 8.70997C16.2653 8.83893 16.4074 8.92187 16.5282 9.03145C16.5971 9.09395 16.6575 9.16072 16.7227 9.22598M17.5704 8.28605C17.653 8.23556 17.714 8.12928 17.7731 8.05671C17.9386 7.85349 18.1051 7.64584 18.2359 7.41785C18.2924 7.31934 18.3946 7.09926 18.283 7.00217C18.0967 6.8402 17.8246 6.83087 17.6114 6.94484C17.3005 7.11097 17.1612 7.42253 17.1384 7.75878C17.0942 8.40865 17.6174 8.85481 18.1581 9.10511C18.2951 9.16855 18.5385 9.29993 18.6874 9.21057C18.8714 9.10019 19.0096 8.85448 19.1184 8.67306M20.0214 6.70117C20.0214 7.30395 20.0766 7.90438 20.0766 8.50618C20.0766 8.74057 20.1135 8.97375 20.1135 9.2075M20.648 7.34616C20.8153 7.32757 20.9802 7.22275 21.1527 7.19975C21.2829 7.1824 21.4004 7.10903 21.5326 7.10658C21.8364 7.10096 22.1166 7.08265 22.1858 7.4383C22.2157 7.59216 22.2046 7.76253 22.2185 7.9195C22.2332 8.085 22.261 8.24806 22.2708 8.41401C22.2773 8.52614 22.2882 8.63377 22.2882 8.74675" stroke="white" stroke-width="0.5" stroke-linecap="round"/>
</svg>
