<svg width="29" height="28" viewBox="0 0 29 28" fill="none" xmlns="http://www.w3.org/2000/svg">
<path d="M15.813 1.32766C15.8899 1.113 16.1935 1.113 16.2703 1.32766L17.2258 3.99549C17.2904 4.17615 17.5292 4.21397 17.6466 4.06215L19.3796 1.82013C19.5191 1.63973 19.8078 1.73354 19.8146 1.96145L19.8988 4.79395C19.9045 4.98575 20.12 5.09551 20.2785 4.98738L22.6195 3.39065C22.8079 3.26217 23.0535 3.44061 22.9895 3.65945L22.1944 6.37936C22.1405 6.56354 22.3115 6.73448 22.4956 6.68064L25.2155 5.88548C25.4344 5.8215 25.6128 6.0671 25.4844 6.25546L23.8876 8.59653C23.7795 8.75505 23.8892 8.97046 24.081 8.97616L26.9136 9.06042C27.1415 9.0672 27.2353 9.35591 27.0549 9.49536L24.8129 11.2284C24.661 11.3458 24.6989 11.5846 24.8795 11.6493L27.5473 12.6047C27.762 12.6815 27.762 12.9851 27.5473 13.062L24.8795 14.0174C24.6989 14.0821 24.661 14.3209 24.8129 14.4382L27.0549 16.1713C27.2353 16.3108 27.1415 16.5995 26.9136 16.6063L24.081 16.6905C23.8892 16.6962 23.7795 16.9116 23.8876 17.0701L25.4844 19.4112C25.6128 19.5996 25.4344 19.8452 25.2155 19.7812L22.4956 18.986C22.3115 18.9322 22.1405 19.1031 22.1944 19.2873L22.9895 22.0072C23.0535 22.2261 22.8079 22.4045 22.6195 22.276L20.2785 20.6793C20.12 20.5712 19.9045 20.6809 19.8988 20.8727L19.8146 23.7052C19.8078 23.9331 19.5191 24.0269 19.3796 23.8465L17.6466 21.6045C17.5292 21.4527 17.2904 21.4905 17.2258 21.6712L16.2703 24.339C16.1935 24.5537 15.8899 24.5537 15.813 24.339L14.8576 21.6712C14.7929 21.4905 14.5541 21.4527 14.4368 21.6045L12.7037 23.8465C12.5642 24.0269 12.2755 23.9331 12.2687 23.7052L12.1845 20.8727C12.1788 20.6809 11.9634 20.5712 11.8049 20.6793L9.46379 22.276C9.27543 22.4045 9.02983 22.2261 9.09381 22.0072L9.88897 19.2873C9.94282 19.1031 9.77187 18.9322 9.58769 18.986L6.86779 19.7812C6.64894 19.8452 6.4705 19.5996 6.59898 19.4112L8.19572 17.0701C8.30384 16.9116 8.19409 16.6962 8.00228 16.6905L5.16978 16.6063C4.94187 16.5995 4.84807 16.3108 5.02846 16.1713L7.27048 14.4382C7.4223 14.3209 7.38448 14.0821 7.20383 14.0174L4.53599 13.062C4.32134 12.9851 4.32134 12.6815 4.53599 12.6047L7.20383 11.6493C7.38448 11.5846 7.4223 11.3458 7.27048 11.2284L5.02846 9.49536C4.84806 9.35591 4.94188 9.0672 5.16978 9.06042L8.00228 8.97616C8.19409 8.97046 8.30384 8.75505 8.19572 8.59653L6.59898 6.25546C6.4705 6.0671 6.64894 5.8215 6.86779 5.88548L9.58769 6.68064C9.77187 6.73448 9.94282 6.56354 9.88897 6.37936L9.09381 3.65945C9.02983 3.44061 9.27543 3.26217 9.46379 3.39065L11.8049 4.98738C11.9634 5.09551 12.1788 4.98575 12.1845 4.79395L12.2687 1.96145C12.2755 1.73354 12.5642 1.63973 12.7037 1.82013L14.4368 4.06215C14.5541 4.21397 14.7929 4.17615 14.8576 3.99549L15.813 1.32766Z" fill="#EEC239"/>
<path d="M24.5426 12.8333C24.5426 17.5283 20.7366 21.3343 16.0417 21.3343C11.3467 21.3343 7.54075 17.5283 7.54075 12.8333C7.54075 8.13841 11.3467 4.33242 16.0417 4.33242C20.7366 4.33242 24.5426 8.13841 24.5426 12.8333Z" fill="#F1CC5A"/>
<path d="M16.0417 5.54683L16.3697 6.43325L17.2561 6.76125L16.3697 7.08925L16.0417 7.97567L15.7137 7.08925L14.8273 6.76125L15.7137 6.43325L16.0417 5.54683Z" fill="#D5A307"/>
<path d="M9.96958 14.0478L10.2976 14.9342L11.184 15.2622L10.2976 15.5902L9.96958 16.4766L9.64158 15.5902L8.75517 15.2622L9.64158 14.9342L9.96958 14.0478Z" fill="#D5A307"/>
<path d="M10.1602 10.2697L11.6361 9.62165C12.2445 9.35452 12.8107 9.88324 12.4984 10.4269C9.61066 15.4547 12.1086 21.1442 17.7644 22.4209C18.376 22.5589 18.3821 23.3335 17.7737 23.6006L16.2977 24.2487C11.8139 26.2173 6.80513 24.6839 5.11029 20.8237C3.41544 16.9635 5.67636 12.2383 10.1602 10.2697Z" fill="#15425B"/>
</svg>
