<svg width="20" height="20" viewBox="0 0 20 20" fill="none" xmlns="http://www.w3.org/2000/svg">
<path d="M10 8.33333C10.1667 8.49195 9.90056 8.83322 9.58334 9.16667C9.19759 9.55242 8.59761 9.71699 8.3784 9.61342C8.34893 9.73749 8.33334 9.86692 8.33334 10C8.33334 10.9205 9.07953 11.6667 10 11.6667C10.9205 11.6667 11.6667 10.9205 11.6667 10C11.6667 9.07953 10.9205 8.33333 10 8.33333Z" fill="#94A3B8"/>
<path fill-rule="evenodd" clip-rule="evenodd" d="M17.5981 9.07927C11.0913 1.35554 5.08447 5.35579 2.29706 9.07852C1.89152 9.62013 1.92148 10.3632 2.34569 10.8903C8.57734 18.6336 14.7177 14.671 17.647 10.9522C18.0833 10.3983 18.0523 9.61852 17.5981 9.07927ZM13.3333 10C13.3333 11.841 11.841 13.3333 10 13.3333C8.15905 13.3333 6.66667 11.841 6.66667 10C6.66667 8.15905 8.15905 6.66667 10 6.66667C11.841 6.66667 13.3333 8.15905 13.3333 10Z" fill="#94A3B8"/>
</svg>
