<svg width="32" height="46" viewBox="0 0 32 46" fill="none" xmlns="http://www.w3.org/2000/svg">
<path d="M25.3749 1.29004H6.62489C3.51829 1.29004 0.999893 3.94098 0.999893 7.21109V38.79C0.999893 42.0602 3.51829 44.7111 6.62489 44.7111H25.3749C28.4815 44.7111 30.9999 42.0602 30.9999 38.79V7.21109C30.9999 3.94099 28.4815 1.29004 25.3749 1.29004Z" fill="white"/>
<path fill-rule="evenodd" clip-rule="evenodd" d="M6.625 0.5H25.375C28.8958 0.5 31.75 3.50441 31.75 7.21053V38.7895C31.75 42.4956 28.8958 45.5 25.375 45.5H6.625C3.10419 45.5 0.25 42.4956 0.25 38.7895V7.21053C0.25 3.50441 3.10419 0.5 6.625 0.5ZM6.625 1.28947H25.375C28.4816 1.28947 31 3.94042 31 7.21053V38.7895C31 42.0596 28.4816 44.7105 25.375 44.7105H6.625C3.5184 44.7105 1 42.0596 1 38.7895V7.21053C1 3.94042 3.5184 1.28947 6.625 1.28947Z" fill="#E2E8F0"/>
<path d="M10.3749 17.0792C6.59962 17.0792 3.4402 18.4683 1.78236 19.4985C1.27414 19.8143 0.999893 20.4053 0.999893 21.0265V30.8949C0.999893 34.165 3.51829 36.816 6.62489 36.816H25.3749C28.4815 36.816 30.9999 34.1651 30.9999 30.8949V17.0792C30.9999 15.9891 30.3949 15.1055 29.3594 15.1055H28.1874C24.4374 15.1055 24.4374 19.0528 21.6249 20.0397C18.8124 21.0265 15.9999 17.0792 10.3749 17.0792Z" fill="#4338CA"/>
<path d="M19.378 21.0264C17.2344 21.0264 15.4451 22.4529 14.5267 23.4868C14.2504 23.7978 14.125 24.217 14.125 24.6428V34.8422C14.125 38.1123 16.6434 40.7633 19.75 40.7633H25.3095C28.4161 40.7633 30.9345 38.1123 30.9345 34.8422V20.8493C30.9345 19.8571 30.3012 19.0527 29.3586 19.0527C27.2574 19.0527 27.2574 23.0001 25.6815 23.9869C24.1056 24.9738 22.5298 21.0264 19.378 21.0264Z" fill="#EF4444"/>
<path d="M20.6693 24.9737C18.7491 24.9737 17.1488 26.4223 16.3382 27.458C16.1036 27.7578 16 28.1414 16 28.5299V38.7895C16 42.0596 18.5184 44.7105 21.625 44.7105H25.3168C28.4234 44.7105 30.9418 42.0596 30.9418 38.7895V24.597C30.9418 23.715 30.3789 23 29.541 23C27.6733 23 27.6733 26.9474 26.2725 27.9342C24.8717 28.9211 23.4709 24.9737 20.6693 24.9737Z" fill="#14B8A6"/>
<path d="M6.25288 21.0264C4.10929 21.0264 2.32004 22.4529 1.40158 23.4868C1.1253 23.7978 0.999893 24.217 0.999893 24.6428V34.8422C0.999893 38.1123 3.51829 40.7633 6.62489 40.7633H12.1845C15.2911 40.7633 17.8095 38.1123 17.8095 34.8422V20.8493C17.8095 19.8571 17.1762 19.0527 16.2336 19.0527C14.1324 19.0527 14.1324 23.0001 12.5565 23.9869C10.9806 24.9738 9.40468 21.0264 6.25288 21.0264Z" fill="#EAB308"/>
<path d="M10.3749 24.9737C6.59962 24.9737 3.4402 26.3628 1.78236 27.393C1.27414 27.7088 0.999893 28.2998 0.999893 28.9211V38.7895C0.999893 42.0596 3.51829 44.7105 6.62489 44.7105H25.3749C28.4815 44.7105 30.9999 42.0596 30.9999 38.7895V24.9737C30.9999 23.8836 30.3949 23 29.3594 23H28.1874C24.4374 23 24.4374 26.9474 21.6249 27.9342C18.8124 28.9211 15.9999 24.9737 10.3749 24.9737Z" fill="#2E90C5"/>
<g clip-path="url(#clip0_3801_9510)">
<path d="M4.74992 6.39166C4.74992 5.75359 5.24132 5.23633 5.84748 5.23633H7.38615C7.99232 5.23633 8.48371 5.75359 8.48371 6.39166V7.98798C8.48371 8.62604 7.99232 9.1433 7.38615 9.1433H5.84748C5.24132 9.1433 4.74992 8.62604 4.74992 7.98798V6.39166Z" fill="#2B64AF"/>
<path d="M7.79567 8.41913V7.18638V6.66284C7.79567 6.29838 7.51514 6.00293 7.1691 6.00293C6.81688 6.00293 6.53386 6.30859 6.54272 6.67943L6.55301 7.11035H6.09941C5.7469 7.11035 5.46499 7.41889 5.47854 7.78989C5.49137 8.14125 5.76556 8.41913 6.09941 8.41913H7.79567Z" fill="#329ED8"/>
<path fill-rule="evenodd" clip-rule="evenodd" d="M7.1691 6.05283C6.84375 6.05283 6.58233 6.33517 6.5905 6.67772L6.60202 7.16025H6.09942C5.77402 7.16025 5.5138 7.44506 5.5263 7.78751L5.52724 7.81314C5.53856 8.12316 5.78048 8.36835 6.07506 8.36835H6.60081V8.46902H6.07506C5.72912 8.46902 5.44502 8.18109 5.43172 7.81701L5.43079 7.79138C5.41619 7.39185 5.71978 7.05957 6.09942 7.05957H6.504L6.49494 6.68025C6.48541 6.28112 6.79002 5.95215 7.1691 5.95215C7.54154 5.95215 7.84347 6.27014 7.84347 6.6624V7.16025H7.74789V6.6624C7.74789 6.32574 7.48876 6.05283 7.1691 6.05283Z" fill="white"/>
<path d="M6.35275 6.41678C6.35275 6.69658 6.13727 6.9234 5.87146 6.9234C5.60565 6.9234 5.39017 6.69658 5.39017 6.41678C5.39017 6.13698 5.60565 5.91016 5.87146 5.91016C6.13727 5.91016 6.35275 6.13698 6.35275 6.41678Z" fill="white"/>
</g>
<path d="M27.0167 40.7634V37.8926H28.8784V38.4561H27.6759V39.0448H28.7598V39.6097H27.6759V40.7634H27.0167Z" fill="white"/>
<path d="M25.2855 40.7634H24.2774V37.8926H25.2842C25.562 37.8926 25.8013 37.9501 26.0019 38.065C26.2035 38.179 26.3588 38.3435 26.468 38.5584C26.5772 38.7724 26.6318 39.0285 26.6318 39.3266C26.6318 39.6256 26.5772 39.8826 26.468 40.0976C26.3597 40.3125 26.2048 40.4774 26.0033 40.5924C25.8017 40.7064 25.5625 40.7634 25.2855 40.7634ZM24.9366 40.1718H25.2602C25.4129 40.1718 25.5421 40.1447 25.6477 40.0905C25.7542 40.0354 25.8346 39.9462 25.8887 39.8228C25.9438 39.6985 25.9713 39.5331 25.9713 39.3266C25.9713 39.1201 25.9438 38.9556 25.8887 38.8332C25.8337 38.7098 25.7525 38.621 25.6451 38.5668C25.5385 38.5117 25.4071 38.4841 25.2509 38.4841H24.9366V40.1718Z" fill="white"/>
<path d="M21.8311 40.7634V37.8926H22.9577C23.1619 37.8926 23.3381 37.9346 23.4864 38.0187C23.6356 38.1019 23.7505 38.2183 23.8313 38.3678C23.9121 38.5164 23.9525 38.6892 23.9525 38.8864C23.9525 39.0845 23.9112 39.2579 23.8286 39.4065C23.747 39.5541 23.6302 39.6686 23.4784 39.7499C23.3266 39.8312 23.1464 39.8719 22.9378 39.8719H22.2426V39.3252H22.8152C22.9147 39.3252 22.9977 39.307 23.0643 39.2705C23.1317 39.2341 23.1828 39.1831 23.2174 39.1177C23.252 39.0514 23.2693 38.9743 23.2693 38.8864C23.2693 38.7977 23.252 38.721 23.2174 38.6565C23.1828 38.5911 23.1317 38.5407 23.0643 38.5051C22.9968 38.4696 22.9138 38.4519 22.8152 38.4519H22.4903V40.7634H21.8311Z" fill="white"/>
<defs>
<clipPath id="clip0_3801_9510">
<rect width="3.75" height="3.94737" fill="white" transform="translate(4.74992 5.23633)"/>
</clipPath>
</defs>
</svg>
