<svg width="24" height="24" viewBox="0 0 24 24" fill="none" xmlns="http://www.w3.org/2000/svg">
<path fill-rule="evenodd" clip-rule="evenodd" d="M1.8335 16.2857V7.71429C1.8335 4.55837 4.51979 2 7.8335 2H15.8335C19.1472 2 21.8335 4.55837 21.8335 7.71429V16.2857C21.8335 19.4416 19.1472 22 15.8335 22H7.8335C4.51979 22 1.8335 19.4416 1.8335 16.2857ZM11.8335 11.5238C12.9381 11.5238 13.8335 10.671 13.8335 9.61905C13.8335 8.56708 12.9381 7.71429 11.8335 7.71429C10.7289 7.71429 9.8335 8.56708 9.8335 9.61905C9.8335 10.671 10.7289 11.5238 11.8335 11.5238ZM13.8335 18.1905H9.8335C8.72893 18.1905 7.8335 17.3377 7.8335 16.2857V15.3333C7.8335 14.2814 8.72893 13.4286 9.8335 13.4286H13.8335C14.9381 13.4286 15.8335 14.2814 15.8335 15.3333V16.2857C15.8335 17.3377 14.9381 18.1905 13.8335 18.1905Z" fill="#94A3B8"/>
</svg>
