<svg width="28" height="28" viewBox="0 0 28 28" fill="none" xmlns="http://www.w3.org/2000/svg">
<path d="M2.33337 7.53711V17.6399C2.33337 17.968 2.49193 18.2848 2.8102 18.4292C4.25354 19.0838 7.85174 19.6769 14 18.159C18.3861 17.0762 21.4744 17.0676 23.4084 17.3893C24.3712 17.5495 25.6667 16.8174 25.6667 15.9118V3.83565C25.6667 3.36149 25.3341 2.93992 24.8363 2.82821C22.0172 2.19549 16.9478 1.77888 14 4.11801C11.2258 6.31946 6.57221 6.59936 3.684 6.41319C2.9707 6.36721 2.33337 6.87514 2.33337 7.53711Z" fill="#188C43"/>
<path d="M3.5 8.61718V18.72C3.5 19.0481 3.65855 19.3649 3.97682 19.5092C5.42017 20.1639 9.01836 20.7569 15.1667 19.2391C19.5527 18.1563 22.641 18.1477 24.575 18.4694C25.5379 18.6296 26.8333 17.8975 26.8333 16.9918V4.91573C26.8333 4.44157 26.5007 4.02 26.0029 3.90829C23.1839 3.27556 18.1144 2.85896 15.1667 5.19808C12.3924 7.39954 7.73884 7.67944 4.85063 7.49327C4.13732 7.44729 3.5 7.95522 3.5 8.61718Z" fill="#1FB356"/>
<path d="M11.9973 11.5346L11.9622 11.6646C11.2372 14.3492 13.5343 16.9138 16.5181 16.7514C18.7459 16.63 20.528 14.993 20.6765 12.9316L20.6861 12.7979C20.856 10.4386 18.8347 8.43848 16.2807 8.43848C14.2547 8.43848 12.4886 9.715 11.9973 11.5346Z" fill="#188C43"/>
<path d="M6.83031 18.7976C5.57512 20.1274 6.22106 22.5511 8.27305 24.2112C10.325 25.8712 13.006 26.1389 14.2612 24.8092C15.5164 23.4794 14.8705 21.0556 12.8185 19.3956C10.7665 17.7356 8.08549 17.4679 6.83031 18.7976Z" fill="#EAB308"/>
<path d="M7.47935 18.1096C6.22417 19.4394 6.87011 21.8632 8.9221 23.5232C10.9741 25.1832 13.6551 25.4509 14.9103 24.1212C16.1655 22.7914 15.5195 20.3677 13.4675 18.7076C11.4155 17.0476 8.73454 16.7799 7.47935 18.1096Z" fill="#EEC239"/>
<path fill-rule="evenodd" clip-rule="evenodd" d="M13.3386 19.8092C13.2221 19.9122 13.2177 20.0831 13.3289 20.191C14.2617 21.0964 14.314 22.3678 14.2215 22.8803C14.195 23.0274 14.3023 23.1665 14.4612 23.1911C14.6201 23.2157 14.7704 23.1163 14.7969 22.9692C14.9071 22.3588 14.8553 20.89 13.751 19.8182C13.6398 19.7103 13.4552 19.7063 13.3386 19.8092Z" fill="#EAB308"/>
<path d="M22.2895 17.8406C22.726 19.5597 20.9295 21.4214 18.2768 21.9988C15.624 22.5762 13.1196 21.6506 12.6831 19.9315C12.2465 18.2124 14.043 16.3508 16.6958 15.7734C19.3485 15.196 21.8529 16.1215 22.2895 17.8406Z" fill="#EAB308"/>
<path d="M22.0636 16.9515C22.5002 18.6705 20.7037 20.5322 18.0509 21.1096C15.3982 21.687 12.8938 20.7615 12.4572 19.0424C12.0207 17.3233 13.8172 15.4616 16.4699 14.8842C19.1227 14.3068 21.627 15.2324 22.0636 16.9515Z" fill="#EEC239"/>
<path fill-rule="evenodd" clip-rule="evenodd" d="M16.0269 15.9137C16.0778 16.0552 15.9953 16.2081 15.8424 16.2553C14.5603 16.6509 13.871 17.7517 13.6936 18.2446C13.6426 18.3861 13.4775 18.4626 13.3246 18.4154C13.1718 18.3683 13.0892 18.2153 13.1402 18.0739C13.3516 17.4867 14.1401 16.2113 15.658 15.7429C15.8108 15.6958 15.976 15.7722 16.0269 15.9137Z" fill="#EAB308"/>
</svg>
