<svg width="24" height="24" viewBox="0 0 24 24" fill="none" xmlns="http://www.w3.org/2000/svg">
<path d="M11.0386 2.54898C11.4883 1.81706 12.5117 1.81706 12.9614 2.54899L15.6549 6.93257C15.8097 7.1844 16.0492 7.36633 16.3262 7.44235L21.1468 8.76553C21.9517 8.98646 22.2679 10.0039 21.741 10.6772L18.585 14.7096C18.4037 14.9412 18.3122 15.2356 18.3287 15.5344L18.6145 20.7357C18.6622 21.6042 17.8342 22.233 17.0588 21.9172L12.4148 20.0258C12.148 19.9171 11.852 19.9171 11.5852 20.0258L6.94118 21.9172C6.16578 22.233 5.33783 21.6042 5.38555 20.7357L5.67134 15.5344C5.68776 15.2356 5.59626 14.9412 5.41496 14.7096L2.25903 10.6772C1.73209 10.0039 2.04834 8.98646 2.85323 8.76553L7.67384 7.44234C7.95077 7.36633 8.19032 7.1844 8.34506 6.93257L11.0386 2.54898Z" fill="#94A3B8"/>
</svg>
