<svg width="190" height="190" viewBox="0 0 190 190" fill="none" xmlns="http://www.w3.org/2000/svg">
<path d="M94.9274 61.7585C94.9274 69.9093 88.2465 76.5169 80.0053 76.5169C71.764 76.5169 65.0831 69.9093 65.0831 61.7585C65.0831 53.6076 71.764 47 80.0053 47C88.2465 47 94.9274 53.6076 94.9274 61.7585Z" fill="white"/>
<path d="M56.9533 114.588L59.2846 112.634L60.3788 111.717C65.2959 107.343 68.388 101.002 68.388 93.946C68.388 88.3827 66.4657 83.2635 63.2422 79.2026C61.9953 77.6319 60.5537 76.2194 58.9534 75.0009C54.877 71.897 49.7706 70.0513 44.2284 70.0513C38.5771 70.0513 33.3791 71.9704 29.264 75.1855C27.718 76.3935 26.3249 77.7844 25.118 79.3252C24.7823 79.7537 24.4611 80.1938 24.1549 80.6449C23.7186 81.2877 23.8335 82.1407 24.3897 82.6856L56.9533 114.588Z" fill="url(#paint0_linear_4509_112660)"/>
<path d="M114.033 105.44L91.2636 124.522L106.814 142.413C107.138 142.786 107.61 143 108.107 143H124.302C130.075 143 134.756 138.371 134.756 132.66C134.756 130.046 133.755 127.529 131.954 125.616L126.928 120.275L114.033 105.44Z" fill="white"/>
<path d="M165.515 62.2937C166.106 61.7984 166.29 60.9682 165.919 60.2959C165.716 59.9297 165.505 59.5693 165.284 59.215C164.002 57.1596 162.415 55.3106 160.585 53.7302C156.338 50.0641 150.783 47.8433 144.704 47.8433C142.63 47.8433 140.175 47.9652 138.117 48.4089C137.392 48.5651 136.735 48.9257 136.161 49.3903L94.5777 83.0557L82.1937 93.4346C80.8443 94.5654 78.8448 94.4886 77.5883 93.2575L63.2422 79.2026C66.4657 83.2635 68.388 88.3827 68.388 93.946C68.388 101.002 65.2959 107.343 60.3788 111.717C60.0235 112.033 59.6586 112.339 59.2846 112.634L56.9533 114.588L76.0163 133.264C77.2728 134.495 79.2723 134.572 80.6216 133.441L91.2636 124.522L114.033 105.44L165.515 62.2937Z" fill="white"/>
<defs>
<linearGradient id="paint0_linear_4509_112660" x1="27.4442" y1="71.8889" x2="70.1109" y2="137.667" gradientUnits="userSpaceOnUse">
<stop stop-color="white"/>
<stop offset="1" stop-color="#E2E8F0"/>
</linearGradient>
</defs>
</svg>
