<svg width="25" height="24" viewBox="0 0 25 24" fill="none" xmlns="http://www.w3.org/2000/svg">
<path fill-rule="evenodd" clip-rule="evenodd" d="M13.7897 7.55413C14.203 5.48755 16.0175 4 18.125 4C20.2325 4 22.047 5.48755 22.4603 7.55413L23.053 10.5177C23.3324 11.9143 22.7849 13.3473 21.6454 14.2019L20.1798 15.3012V19.2052C20.1798 19.8861 19.6278 20.438 18.9469 20.438H17.3031C16.6222 20.438 16.0702 19.8861 16.0702 19.2052V15.3012L14.6046 14.2019C13.4651 13.3473 12.9176 11.9143 13.197 10.5177L13.7897 7.55413Z" fill="#329ED8"/>
<path fill-rule="evenodd" clip-rule="evenodd" d="M3.36181 4.67495C3.44244 4.28249 3.79647 4 4.20765 4C4.68405 4 5.07024 4.37591 5.07024 4.83961V9.2C5.07024 9.42091 5.25423 9.6 5.48119 9.6C5.70816 9.6 5.89215 9.42091 5.89215 9.2V5.2C5.89215 4.53726 6.44411 4 7.125 4C7.80589 4 8.35785 4.53726 8.35785 5.2V9.2C8.35785 9.42091 8.54184 9.6 8.7688 9.6C8.99577 9.6 9.17976 9.42091 9.17976 9.2V4.83961C9.17976 4.37591 9.56595 4 10.0424 4C10.4535 4 10.8076 4.28249 10.8882 4.67495L12.053 10.344C12.3324 11.7034 11.7849 13.0982 10.6454 13.93L9.17976 15V18.8C9.17976 19.4627 8.62779 20 7.9469 20H6.3031C5.62221 20 5.07024 19.4627 5.07024 18.8V15L3.60455 13.93C2.4651 13.0982 1.91762 11.7034 2.19695 10.344L3.36181 4.67495Z" fill="#329ED8"/>
</svg>
