<svg width="29" height="28" viewBox="0 0 29 28" fill="none" xmlns="http://www.w3.org/2000/svg">
<path d="M3.875 21V9.33333C3.875 6.11167 6.48667 3.5 9.70833 3.5H19.0417C22.2633 3.5 24.875 6.11167 24.875 9.33333V21C24.875 24.2217 22.2633 26.8333 19.0417 26.8333H9.70833C6.48667 26.8333 3.875 24.2217 3.875 21Z" fill="#5BB1E0"/>
<path d="M2.7085 19.8333V8.16667C2.7085 4.94501 5.32017 2.33334 8.54183 2.33334H20.2085C23.4302 2.33334 26.0418 4.94501 26.0418 8.16667V19.8333C26.0418 23.055 23.4302 25.6667 20.2085 25.6667H8.54183C5.32017 25.6667 2.7085 23.055 2.7085 19.8333Z" fill="#A1D2ED"/>
<path d="M2.7085 9.33334V8.16667C2.7085 4.94501 5.32017 2.33334 8.54183 2.33334H20.2085C23.4302 2.33334 26.0418 4.94501 26.0418 8.16667V9.33334H2.7085Z" fill="#D93E3E"/>
<path d="M11.1085 1.16667H10.6418C10.1264 1.16667 9.7085 1.58454 9.7085 2.1V4.9C9.7085 5.41547 10.1264 5.83333 10.6418 5.83333H11.1085C11.624 5.83333 12.0418 5.41547 12.0418 4.9V2.1C12.0418 1.58454 11.624 1.16667 11.1085 1.16667Z" fill="#F1F5F9"/>
<path d="M18.1085 1.16667H17.6418C17.1264 1.16667 16.7085 1.58454 16.7085 2.1V4.9C16.7085 5.41547 17.1264 5.83333 17.6418 5.83333H18.1085C18.624 5.83333 19.0418 5.41547 19.0418 4.9V2.1C19.0418 1.58454 18.624 1.16667 18.1085 1.16667Z" fill="#F1F5F9"/>
<path fill-rule="evenodd" clip-rule="evenodd" d="M11.1271 13.7667C9.66235 13.7667 8.7498 14.5017 8.55874 14.7293C8.19023 15.1682 7.5456 15.2167 7.11891 14.8376C6.69222 14.4586 6.64505 13.7956 7.01356 13.3567C7.56492 12.7 9.02813 11.6667 11.1271 11.6667C11.9239 11.6667 12.6367 11.9488 13.165 12.4703C13.6878 12.9863 13.9735 13.6808 14.0245 14.4097C14.1273 15.8782 13.303 17.4317 11.6634 18.4732C10.563 19.1722 9.67382 19.6945 8.99915 20.0667H13.3543C13.9181 20.0667 14.3752 20.5368 14.3752 21.1167C14.3752 21.6966 13.9181 22.1667 13.3543 22.1667H6.2085V19.0701L6.86175 18.8108C7.14188 18.6996 8.37591 18.0932 10.5907 16.6864C11.7352 15.9595 12.0246 15.0815 11.9881 14.5605C11.9695 14.2947 11.8725 14.105 11.7514 13.9854C11.6358 13.8714 11.4439 13.7667 11.1271 13.7667Z" fill="#5BB1E0"/>
<path fill-rule="evenodd" clip-rule="evenodd" d="M14.3752 15.8667C14.3752 13.5471 16.2033 11.6667 18.4585 11.6667C20.7137 11.6667 22.5418 13.5471 22.5418 15.8667V17.9667C22.5418 20.2863 20.7137 22.1667 18.4585 22.1667C16.2033 22.1667 14.3752 20.2863 14.3752 17.9667V15.8667ZM18.4585 13.7667C17.3309 13.7667 16.4168 14.7069 16.4168 15.8667V17.9667C16.4168 19.1265 17.3309 20.0667 18.4585 20.0667C19.5861 20.0667 20.5002 19.1265 20.5002 17.9667V15.8667C20.5002 14.7069 19.5861 13.7667 18.4585 13.7667Z" fill="#5BB1E0"/>
</svg>
