<svg width="25" height="24" viewBox="0 0 25 24" fill="none" xmlns="http://www.w3.org/2000/svg">
<path d="M3.125 16.5872V13.1599L4.69381 13.8161C9.8822 15.7762 15.2213 15.7285 20.5562 13.7697L22.125 13.1385V16.5872C22.125 19.5766 19.8228 22 16.9828 22H8.2672C5.42724 22 3.125 19.5766 3.125 16.5872Z" fill="#6466F1"/>
<path fill-rule="evenodd" clip-rule="evenodd" d="M8.35436 5.66972V5.57798C8.35436 3.60192 9.87618 2 11.7534 2H13.4966C15.3738 2 16.8956 3.60192 16.8956 5.57798V5.66972H16.9828C19.8228 5.66972 22.125 8.09314 22.125 11.0826V11.3417L20.5562 12.0145C15.1866 14.118 9.86036 14.1557 4.69381 12.0538L3.125 11.3473V11.0826C3.125 8.09314 5.42724 5.66972 8.2672 5.66972H8.35436ZM11.7534 3.65138C10.7426 3.65138 9.92317 4.51395 9.92317 5.57798V5.66972H15.3268V5.57798C15.3268 4.51395 14.5074 3.65138 13.4966 3.65138H11.7534ZM12.625 12C13.1063 12 13.4966 11.5893 13.4966 11.0826C13.4966 10.5759 13.1063 10.1652 12.625 10.1652C12.1436 10.1652 11.7534 10.5759 11.7534 11.0826C11.7534 11.5893 12.1436 12 12.625 12Z" fill="#6466F1"/>
</svg>
